<?xml version="1.0" encoding="UTF-8" standalone="no"?>
<!-- Created with Inkscape (http://www.inkscape.org/) -->

<svg
   version="1.1"
   id="svg2"
   width="724.64001"
   height="336.72"
   viewBox="0 0 724.64001 336.72"
   sodipodi:docname="Figure3.B.C.Updated.27March2023.eps"
   xmlns:inkscape="http://www.inkscape.org/namespaces/inkscape"
   xmlns:sodipodi="http://sodipodi.sourceforge.net/DTD/sodipodi-0.dtd"
   xmlns="http://www.w3.org/2000/svg"
   xmlns:svg="http://www.w3.org/2000/svg">
  <defs
     id="defs6">
    <clipPath
       clipPathUnits="userSpaceOnUse"
       id="clipPath18">
      <path
         d="M 563.852,604.922 H 2551.05 V 2160.12 H 563.852 Z"
         id="path16" />
    </clipPath>
    <clipPath
       clipPathUnits="userSpaceOnUse"
       id="clipPath70">
      <path
         d="M 563.852,604.922 H 2551.05 V 2160.12 H 563.852 Z"
         id="path68" />
    </clipPath>
    <clipPath
       clipPathUnits="userSpaceOnUse"
       id="clipPath114">
      <path
         d="m 3443.85,604.922 h 1987.2 V 2160.12 h -1987.2 z"
         id="path112" />
    </clipPath>
    <clipPath
       clipPathUnits="userSpaceOnUse"
       id="clipPath170">
      <path
         d="m 3443.85,604.922 h 1987.2 V 2160.12 h -1987.2 z"
         id="path168" />
    </clipPath>
  </defs>
  <sodipodi:namedview
     id="namedview4"
     pagecolor="#ffffff"
     bordercolor="#000000"
     borderopacity="0.25"
     inkscape:showpageshadow="2"
     inkscape:pageopacity="0.0"
     inkscape:pagecheckerboard="0"
     inkscape:deskcolor="#d1d1d1" />
  <g
     id="g8"
     inkscape:groupmode="layer"
     inkscape:label="ink_ext_XXXXXX"
     transform="matrix(1.3333333,0,0,-1.3333333,0,336.72)">
    <g
       id="g10"
       transform="scale(0.1)">
      <g
         id="g12">
        <g
           id="g14"
           clip-path="url(#clipPath18)">
          <path
             d="m 637.453,662.52 h 10.899 l 3.601,0.101 h 3.602 l 3.597,0.098 3.602,0.101 3.598,0.2 3.601,0.199 3.602,0.301 3.597,0.402 3.602,0.5 3.598,0.598 3.601,0.699 3.602,0.703 3.597,0.898 3.602,0.801 3.598,0.801 3.601,0.797 3.602,0.703 3.597,0.598 3.602,0.5 3.598,0.5 3.601,0.5 3.602,0.601 3.597,0.699 3.602,0.899 3.598,1.101 3.601,1.102 3.602,1.297 3.597,1.203 3.602,1.199 3.598,1 3.601,0.801 3.602,0.5 3.597,0.297 h 3.602 l 3.598,-0.199 3.601,-0.399 3.602,-0.402 3.597,-0.598 3.602,-0.601 3.598,-0.7 3.601,-0.699 3.602,-0.601 3.597,-0.7 3.602,-0.601 3.598,-0.598 3.601,-0.601 3.602,-0.5 3.597,-0.598 3.602,-0.5 3.598,-0.602 3.601,-0.601 3.602,-0.598 3.597,-0.601 3.602,-0.598 3.598,-0.602 3.601,-0.5 3.602,-0.5 3.597,-0.398 3.602,-0.301 3.598,-0.301 3.601,-0.199 3.602,-0.199 3.597,-0.102 3.602,-0.199 3.598,-0.199 3.601,-0.102 3.602,-0.199 3.597,-0.101 3.602,-0.098 h 3.598 l 3.601,-0.102 3.602,0.102 h 3.597 l 3.602,0.098 3.598,0.199 3.601,0.101 3.602,0.2 3.597,0.199 3.602,0.101 3.598,0.2 3.601,0.199 3.602,0.101 3.597,0.2 3.602,0.101 h 3.598 3.601 3.602 l 3.597,-0.101 3.602,-0.098 3.598,-0.102 h 3.601 l 3.602,-0.101 h 3.597 3.602 l 3.598,0.101 3.601,0.102 3.602,0.098 3.595,0.101 3.6,0.199 3.6,0.102 3.6,0.098 h 3.6 l 3.6,0.101 h 3.6 l 3.6,0.199 3.6,0.102 3.6,0.297 3.6,0.402 3.6,0.598 3.6,0.601 3.6,0.7 3.6,0.8 3.6,0.801 3.6,0.699 3.6,0.602 3.6,0.5 3.6,0.398 3.6,0.301 3.6,0.199 3.6,0.2 3.6,0.101 3.6,0.199 3.6,0.2 3.6,0.101 3.6,0.098 h 3.6 3.7 l 3.6,-0.098 3.6,-0.101 3.6,-0.098 3.6,-0.102 h 3.6 l 3.6,0.102 3.6,0.199 3.6,0.399 3.6,0.402 3.6,0.598 3.6,0.5 3.6,0.601 3.6,0.598 3.6,0.5 3.6,0.402 3.6,0.399 3.6,0.402 3.6,0.398 3.6,0.399 3.6,0.5 3.6,0.703 3.6,0.699 3.6,0.699 3.6,0.801 3.6,0.801 3.6,0.797 3.6,0.801 3.6,0.8 3.6,0.899 3.6,0.902 3.6,1 3.6,1 3.6,1.199 3.6,1.301 3.6,1.399 3.6,1.601 3.6,1.699 3.6,2 3.6,2.102 3.6,2.398 3.6,2.5 3.6,2.801 3.6,2.801 3.6,2.898 3.6,2.899 3.6,2.703 3.6,2.5 3.6,2.199 3.6,2 3.6,1.699 3.6,1.5 3.6,1.399 3.6,1.301 3.6,1.3 3.6,1.301 3.6,1.5 3.6,1.598 3.6,1.703 3.6,1.699 3.6,1.899 3.6,1.902 3.6,1.898 3.6,1.801 3.6,1.899 3.6,1.902 3.6,2 3.6,2 3.6,2.098 3.6,2.101 3.6,2 3.6,1.801 3.6,1.297 3.6,0.902 3.6,0.301 3.6,-0.402 3.6,-0.899 3.6,-1.301 3.6,-1.699 3.6,-2 3.6,-2 3.6,-2 3.6,-2 3.6,-1.801 3.6,-1.699 3.6,-1.601 3.6,-1.301 3.6,-1.199 3.6,-1 3.6,-0.801 3.6,-0.699 3.6,-0.399 3.6,-0.199 h 3.6 l 3.6,0.098 3.6,0.199 3.6,0.203 3.6,0.199 3.6,0.098 3.6,-0.199 3.6,-0.399 3.6,-0.601 3.6,-0.899 3.6,-1 3.6,-1.199 3.6,-1.203 3.6,-1.098 3.6,-1 3.6,-0.801 3.6,-0.601 3.6,-0.297 3.6,-0.301 3.6,-0.199 3.6,-0.203 3.6,-0.399 3.6,-0.5 3.6,-0.699 3.6,-0.902 3.6,-1.098 3.6,-1.101 3.6,-1.2 3.6,-1.199 3.6,-1 3.6,-0.699 3.6,-0.5 3.6,-0.102 3.6,0.2 3.6,0.5 3.7,0.601 3.6,0.801 3.6,0.898 3.6,0.899 3.6,0.801 3.6,0.902 3.6,1 3.6,1.297 3.6,1.601 3.6,2.2 3.6,2.902 3.6,3.699 3.6,4.5 3.6,5.199 3.6,5.801 3.6,5.899 3.6,5.699 3.6,5.203 3.6,4.297 3.6,3.301 3.6,2.199 3.6,1.203 3.6,0.598 3.6,0.3 3.6,0.399 3.6,0.801 3.6,1.5 3.6,2.101 3.6,3 3.6,3.598 3.6,4.301 3.6,4.8 3.6,5.301 3.6,5.899 3.6,6.8 3.6,7.801 3.6,9.301 3.6,11 3.6,13 3.6,15.297 3.6,17.601 3.6,19.7 3.6,21.601 3.6,22.801 3.6,23.5 3.6,23.298 3.6,22.4 3.6,21.1 3.6,19.5 3.6,17.9 3.6,16.7 3.6,15.7 3.6,15.4 3.6,15.5 3.6,16.2 3.6,17.1 3.6,18.2 3.6,19.5 3.6,20.7 3.6,21.8 3.6,22.9 3.6,23.6 3.6,24.4 3.6,24.9 3.6,25 3.6,24.7 3.6,23.8 3.6,22.3 3.6,20.1 3.6,17.2 3.6,13.7 3.6,9.7 3.6,5.6 3.6,1.2 3.6,-3.2 3.6,-7.3 3.6,-10.8 3.6,-14 3.6,-16.6 3.6,-18.7 3.6,-20.3 3.6,-21.3 3.6,-22.1 3.6,-22.2 3.6,-22.1 3.6,-21.5 3.6,-20.6 3.6,-19.3 3.6,-17.8 3.6,-16 3.6,-14.1 3.6,-12.4 3.6,-10.7 3.6,-9.2 3.6,-8 3.6,-7.1 3.6,-6.3 3.6,-5.9 3.6,-5.6 3.6,-5.4 3.6,-5.4 3.6,-5.5 3.6,-5.4 3.6,-5.5 3.6,-5.5 3.6,-5.4 3.6,-5.1 3.6,-4.7 3.6,-4.2 3.6,-3.5 3.6,-2.9 3.6,-2.1 3.6,-1.4 3.6,-0.9 3.6,-0.6 3.6,-0.3 3.6,-0.3 3.6,-0.3 3.6,-0.3 3.6,-0.4 3.6,-0.4 3.6,-0.3 3.6,-0.4 3.6,-0.8 3.6,-1.3 3.6,-2.3 3.6,-3.7 3.7,-5.5 3.6,-7.7 3.6,-9.8 3.6,-12.2 3.6,-14.2 3.6,-15.9 3.6,-17.3 3.6,-17.9 3.6,-17.8 3.6,-17.199 3.6,-15.902 3.6,-14.098 3.6,-12.199 3.6,-10.203 3.6,-8.598 3.6,-7.402 3.6,-7.098 3.6,-7.5 3.6,-8.801 3.6,-10.699 3.6,-12.801 3.6,-14.699 3.6,-16.101 3.6,-16.801 3.6,-16.399 3.6,-15.199 3.6,-13.5 3.6,-11.402 3.6,-9.399 3.6,-7.5 3.6,-6 3.6,-4.898 3.6,-4 3.6,-3.602 3.6,-3.199 3.6,-3.101 3.6,-2.899 3.6,-2.699 3.6,-2.402 3.6,-2.301 3.6,-2.098 3.6,-1.801 3.6,-1.601 3.6,-1.5 3.6,-1.199 3.6,-1.098 3.6,-0.801 3.6,-0.699 3.6,-0.602 3.6,-0.5 3.6,-0.398 3.6,-0.402 3.6,-0.301 3.6,-0.399 3.6,-0.3 3.6,-0.301 3.6,-0.297 3.6,-0.203 3.6,-0.098 h 3.6 l 3.6,0.199 3.6,0.5 3.6,0.602 3.6,0.699 3.6,0.899 3.6,0.8 3.6,0.7 3.6,0.601 3.6,0.199 h 3.6 l 3.6,-0.398 3.6,-0.602 3.6,-0.898 3.6,-1.203 3.6,-1.199 3.6,-1.399 3.6,-1.301 3.6,-1.199 3.6,-1.199 3.6,-0.902 3.6,-0.7 3.6,-0.601 3.6,-0.297 3.6,-0.301 3.6,-0.101 3.6,-0.098 3.6,-0.102 3.6,-0.199 3.6,-0.199 3.6,-0.203 3.6,-0.199 3.6,-0.301 3.6,-0.098 3.6,-0.199 h 3.6 l 3.6,0.098 3.6,0.101 3.6,0.199 3.6,0.301 3.6,0.301 3.6,0.199 3.6,0.098 3.6,-0.098 3.6,-0.301 3.6,-0.5 3.6,-0.8 3.6,-0.899 3.6,-1.101 3.6,-1.2 3.6,-1.3 3.6,-1.2 3.6,-1.199 3.6,-1.101 3.6,-1 3.6,-0.801 3.6,-0.699 3.6,-0.598 3.6,-0.402 3.6,-0.301 3.6,-0.297 3.6,-0.102 3.6,-0.101 3.6,-0.098 3.6,-0.101 h 3.6 3.6 3.6"
             style="fill:none;stroke:#100f0d;stroke-width:15;stroke-linecap:round;stroke-linejoin:round;stroke-miterlimit:10;stroke-dasharray:none;stroke-opacity:1"
             id="path20" />
        </g>
      </g>
      <path
         d="m 2472.55,604.922 v -72 m -365.2,72 v -72 m -365.2,72 v -72 m -365.2,72 v -72 m -365.3,72 v -72 m -365.197,72 v -72 m 0,72 H 2472.55"
         style="fill:none;stroke:#100f0d;stroke-width:7.5;stroke-linecap:round;stroke-linejoin:round;stroke-miterlimit:10;stroke-dasharray:none;stroke-opacity:1"
         id="path22" />
      <g
         id="g24"
         transform="scale(10)">
        <text
           xml:space="preserve"
           transform="matrix(1,0,0,-1,56.3035,34.568)"
           style="font-variant:normal;font-weight:normal;font-size:12px;font-family:Helvetica;-inkscape-font-specification:Helvetica;writing-mode:lr-tb;fill:#100f0d;fill-opacity:1;fill-rule:nonzero;stroke:none"
           id="text28"><tspan
             x="0 6.6719999 10.008 36.523441 43.195438 46.531441 73.047722 79.719719 83.055717 109.57044 116.24244 119.57844 146.09352 152.76552 156.10152 182.60953 189.28152 192.61752"
             y="0"
             sodipodi:role="line"
             id="tspan26">0.00.20.40.60.81.0</tspan></text>
      </g>
      <path
         d="m 563.852,2102.52 h -72 m 72,-288 h -72 m 72,-288 h -72 m 72,-288 h -72 m 72,-288 h -72 m 72,-288 h -72 m 72,0 v 1440"
         style="fill:none;stroke:#100f0d;stroke-width:7.5;stroke-linecap:round;stroke-linejoin:round;stroke-miterlimit:10;stroke-dasharray:none;stroke-opacity:1"
         id="path30" />
      <g
         id="g32"
         transform="scale(10)">
        <text
           xml:space="preserve"
           transform="matrix(1,0,0,-1,35.3113,61.943)"
           style="font-variant:normal;font-weight:normal;font-size:12px;font-family:Helvetica;-inkscape-font-specification:Helvetica;writing-mode:lr-tb;fill:#100f0d;fill-opacity:1;fill-rule:nonzero;stroke:none"
           id="text46"><tspan
             x="0"
             y="0"
             id="tspan34">0</tspan><tspan
             x="0"
             y="-28.7969"
             id="tspan36">2</tspan><tspan
             x="0"
             y="-57.5942"
             id="tspan38">4</tspan><tspan
             x="0"
             y="-86.3993"
             id="tspan40">6</tspan><tspan
             x="0"
             y="-115.1958"
             id="tspan42">8</tspan><tspan
             x="-6.6718798 0.00195106"
             y="-143.99271"
             sodipodi:role="line"
             id="tspan44">10</tspan></text>
      </g>
      <path
         d="M 563.852,604.922 H 2551.05 V 2160.12 H 563.852 Z"
         style="fill:none;stroke:#100f0d;stroke-width:7.5;stroke-linecap:round;stroke-linejoin:round;stroke-miterlimit:10;stroke-dasharray:none;stroke-opacity:1"
         id="path48" />
      <g
         id="g50"
         transform="scale(10)">
        <text
           xml:space="preserve"
           transform="matrix(1,0,0,-1,56.3816,240.506)"
           style="font-variant:normal;font-weight:bold;font-size:14px;font-family:Helvetica;-inkscape-font-specification:Helvetica-Bold;writing-mode:lr-tb;fill:#100f0d;fill-opacity:1;fill-rule:nonzero;stroke:none"
           id="text54"><tspan
             x="0"
             y="0"
             id="tspan52">B</tspan></text>
        <text
           xml:space="preserve"
           transform="matrix(1,0,0,-1,106.3816,5.772)"
           style="font-variant:normal;font-weight:normal;font-size:12px;font-family:Helvetica;-inkscape-font-specification:Helvetica;writing-mode:lr-tb;fill:#100f0d;fill-opacity:1;fill-rule:nonzero;stroke:none"
           id="text58"><tspan
             x="0 5.8901401 9.7730503 16.445051 23.11705 29.11705 35.11705 39.296875 41.960876 48.632877 51.968876 58.640877 68.636879 75.308876 78.644875 84.644875 87.308876 93.125"
             y="0"
             sodipodi:role="line"
             id="tspan56">Transcriptome size</tspan></text>
        <text
           xml:space="preserve"
           transform="matrix(0,1,1,0,10.3035,118.49)"
           style="font-variant:normal;font-weight:normal;font-size:12px;font-family:Helvetica;-inkscape-font-specification:Helvetica;writing-mode:lr-tb;fill:#100f0d;fill-opacity:1;fill-rule:nonzero;stroke:none"
           id="text62"><tspan
             x="0 8.6660137 15.339857 22.013689 28.013689 30.679703 34.013687"
             y="0"
             sodipodi:role="line"
             id="tspan60">Density</tspan></text>
      </g>
      <g
         id="g64">
        <g
           id="g66"
           clip-path="url(#clipPath70)">
          <path
             d="M 563.852,662.52 H 2551.05"
             style="fill:none;stroke:#bcbbb9;stroke-width:0.8;stroke-linecap:round;stroke-linejoin:round;stroke-miterlimit:10;stroke-dasharray:none;stroke-opacity:1"
             id="path72" />
          <path
             d="m 626.152,662.52 h 7.2 l 3.601,0.101 3.602,0.199 3.597,0.2 3.602,0.402 3.598,0.699 3.601,1 3.699,1.5 3.602,2.199 3.598,3 3.601,3.899 3.602,4.801 3.597,5.699 3.602,6.601 3.598,7.102 3.601,7.199 3.602,7 3.597,6.199 3.602,5 3.699,3.399 3.602,1.601 3.597,-0.199 3.602,-1.902 3.598,-3.399 3.601,-4.398 3.602,-5.203 3.597,-5.598 3.602,-5.699 3.598,-5.402 3.601,-5.098 3.699,-4.703 3.602,-4.098 3.598,-3.601 3.601,-2.899 3.602,-2.402 3.597,-1.797 3.602,-1.402 3.598,-1.098 3.601,-0.703 3.602,-0.598 3.597,-0.402 3.7,-0.297 3.601,-0.203 3.602,-0.199 3.597,-0.098 h 3.602 l 3.598,0.098 3.601,0.101 3.602,0.098 3.597,0.203 3.602,0.098 h 3.598 l 3.703,-0.098 3.597,-0.203 3.602,-0.297 3.598,-0.402 3.601,-0.301 3.602,-0.199 3.597,-0.098 h 3.602 l 3.598,0.199 3.601,0.301 3.602,0.398 3.699,0.301 3.598,0.301 3.601,0.199 3.602,0.098 3.597,-0.098 3.602,-0.101 3.598,-0.301 3.601,-0.199 3.602,-0.301 3.597,-0.399 3.602,-0.3 3.699,-0.2 3.602,-0.199 3.597,-0.101 3.602,0.101 3.598,0.199 3.601,0.301 3.602,0.399 3.597,0.5 3.602,0.601 3.598,0.5 3.601,0.399 3.699,0.402 3.602,0.398 3.598,0.399 3.601,0.402 3.602,0.5 3.597,0.5 3.602,0.699 3.598,0.7 3.601,0.699 3.602,0.601 3.597,0.5 3.602,0.399 3.699,0.402 3.602,0.399 3.597,0.5 3.602,0.699 3.598,1 3.598,1.101 3.6,1.2 3.6,1.3 3.6,1.2 3.6,1.101 3.6,1 3.7,0.801 3.6,0.598 3.6,0.601 3.6,0.5 3.6,0.598 3.6,0.601 3.6,0.7 3.6,0.902 3.6,1 3.6,1.098 3.6,1.199 3.7,1.203 3.6,1.199 3.6,1.199 3.6,1.102 3.6,1 3.6,0.898 3.6,0.899 3.6,0.902 3.6,0.801 3.6,0.898 3.6,0.801 3.7,0.899 3.6,0.902 3.6,0.898 3.6,1 3.6,1.102 3.6,1.199 3.6,1.399 3.6,1.5 3.6,1.8 3.6,2.102 3.6,2.398 3.7,2.7 3.6,2.902 3.6,3.199 3.6,3.399 3.6,3.3 3.6,3.399 3.6,3.203 3.6,3 3.6,2.699 3.6,2.399 3.6,2 3.7,1.8 3.6,1.602 3.6,1.797 3.6,2 3.6,2.601 3.6,3.2 3.6,3.699 3.6,4.301 3.6,4.699 3.6,4.801 3.6,4.8 3.7,4.602 3.6,4.199 3.6,3.598 3.6,3.101 3.6,2.399 3.6,1.601 3.6,0.899 h 3.6 l 3.6,-0.699 3.6,-1.399 3.6,-2 3.6,-2.5 3.7,-2.902 3.6,-3.199 3.6,-3.098 3.6,-3 3.6,-2.801 3.6,-2.5 3.6,-2.101 3.6,-1.899 3.6,-1.5 3.6,-1.402 3.6,-1.297 3.7,-1.102 3.6,-1 3.6,-0.898 3.6,-0.703 3.6,-0.598 3.6,-0.402 3.6,-0.199 3.6,-0.098 h 3.6 l 3.6,0.098 3.6,0.101 h 3.7 l 3.6,-0.101 3.6,-0.2 3.6,-0.5 3.6,-0.601 3.6,-0.899 3.6,-1.101 3.6,-1.297 3.6,-1.5 3.6,-1.602 3.6,-1.398 3.7,-1.301 3.6,-1 3.6,-0.699 3.6,-0.402 3.6,-0.301 3.6,-0.098 3.6,0.098 3.6,0.101 3.6,0.5 3.6,0.801 3.6,1.199 3.7,1.899 3.6,2.601 3.6,3.2 3.6,3.8 3.6,4.301 3.6,4.699 3.6,5.102 3.6,5.5 3.6,5.797 3.6,6.301 3.6,6.601 3.7,6.899 3.6,7.3 3.6,7.801 3.6,8.199 3.6,9 3.6,10 3.6,11.102 3.6,12.398 3.6,13.7 3.6,14.5 3.6,15.101 3.7,15 3.6,14.5 3.6,13.699 3.6,12.801 3.6,12 3.6,11.799 3.6,12 3.6,13.1 3.6,15 3.6,17.2 3.6,20 3.6,22.8 3.7,25.2 3.6,27.2 3.6,28.3 3.6,29 3.6,29.2 3.6,29.3 3.6,29.8 3.6,30.7 3.6,31.9 3.6,33.4 3.6,34.8 3.7,35.5 3.6,35.4 3.6,34.1 3.6,31.5 3.6,27.8 3.6,23.3 3.6,18.4 3.6,13.3 3.6,8.6 3.6,4.3 3.6,0.6 3.7,-3.1 3.6,-6.9 3.6,-10.9 3.6,-15.2 3.6,-19.8 3.6,-24.2 3.6,-28 3.6,-31.2 3.6,-33.2 3.6,-34.3 3.6,-34.6 3.7,-33.9 3.6,-32.7 3.6,-31 3.6,-28.9 3.6,-26.3 3.6,-23.5 3.6,-20.1 3.6,-16.6 3.6,-12.9 3.6,-9.5 3.6,-6.5 3.7,-4.2 3.6,-2.6 3.6,-2.2 3.6,-2.4 3.6,-3.4 3.6,-4.8 3.6,-6.3 3.6,-7.3 3.6,-8 3.6,-8 3.6,-7.4 3.7,-6.6 3.6,-5.7 3.6,-5.2 3.6,-5.2 3.6,-5.8 3.6,-6.8 3.6,-8.1 3.6,-9.3 3.6,-10 3.6,-9.9 3.6,-8.6 3.7,-6.5 3.6,-3.5 3.6,-0.1 3.6,3 3.6,4.8 3.6,4.6 3.6,2 3.6,-2.7 3.6,-9 3.6,-16 3.6,-22.2 3.6,-27.1 3.7,-29.5 3.6,-29.5 3.6,-27.101 3.6,-22.899 3.6,-17.3 3.6,-11 3.6,-4.5 3.6,1.8 3.6,7.301 3.6,11.199 3.6,12.602 3.7,11.199 3.6,7.301 3.6,1.098 3.6,-6.098 3.6,-13.301 3.6,-19.101 3.6,-22.801 3.6,-24 3.6,-23.098 3.6,-20.601 3.6,-17.2 3.7,-13.8 3.6,-10.7 3.6,-8.398 3.6,-6.5 3.6,-5.402 3.6,-4.5 3.6,-3.899 3.6,-3.301 3.6,-2.699 3.6,-2.199 3.6,-1.703 3.7,-1.199 3.6,-0.899 3.6,-0.699 3.6,-0.5 3.6,-0.5 3.6,-0.5 3.6,-0.402 3.6,-0.5 3.6,-0.301 3.6,-0.297 3.6,-0.102 3.7,0.102 3.6,0.098 3.6,0.101 3.6,0.199 3.6,0.102 3.6,0.098 h 3.6 l 3.6,-0.098 3.6,-0.203 3.6,-0.199 3.6,-0.2 3.7,-0.199 3.6,-0.199 3.6,-0.102 3.6,-0.101 h 3.6 3.6 3.6 3.6 3.6 l 3.6,-0.098 3.6,-0.101 3.7,-0.2 3.6,-0.3 3.6,-0.301 3.6,-0.399 3.6,-0.398 3.6,-0.402 3.6,-0.301 3.6,-0.399 3.6,-0.3 3.6,-0.2 3.6,-0.199 3.6,-0.301 3.7,-0.101 3.6,-0.199 3.6,-0.2 3.6,-0.199 3.6,-0.101 3.6,-0.2 3.6,-0.101 3.6,-0.098 h 3.6 l 3.6,0.098 3.6,0.101 3.7,0.2 3.6,0.199 3.6,0.203 3.6,0.098 3.6,0.199 h 3.6 3.6 3.6 l 3.6,-0.098 h 3.6 l 3.6,-0.101 h 3.7 3.6 l 3.6,0.101 h 3.6 l 3.6,0.098 h 3.6 3.6 l 3.6,-0.098 h 3.6 3.6 l 3.6,0.098 3.7,0.101 3.6,0.102 3.6,0.098 3.6,0.101 h 3.6 3.6 l 3.6,-0.199 3.6,-0.203 3.6,-0.297 3.6,-0.301 3.6,-0.301 3.7,-0.3 3.6,-0.2 3.6,-0.101 h 3.6 3.6 l 3.6,0.203 3.6,0.199 3.6,0.301 3.6,0.098 3.6,0.199 h 3.6 3.7 l 3.6,-0.098 3.6,-0.199 3.6,-0.102 3.6,-0.101 3.6,-0.098 3.6,-0.101 h 3.6 l 3.6,0.101 h 3.6 l 3.6,0.098 3.7,0.101 3.6,0.102 3.6,0.098 3.6,0.101 3.6,0.199 3.6,0.301 3.6,0.301 3.6,0.398 3.6,0.301 3.6,0.301 3.6,0.199 3.6,0.098 h 3.7 l 3.6,-0.098 3.6,-0.301 3.6,-0.199 3.6,-0.301 3.6,-0.3 3.6,-0.301 3.6,-0.297 3.6,-0.402 3.6,-0.399 3.6,-0.402 3.7,-0.399 3.6,-0.398 3.6,-0.402 3.6,-0.301 3.6,-0.199 3.6,-0.2 3.6,-0.101 3.6,-0.098 3.6,-0.101 h 3.6 3.6 3.7"
             style="fill:none;stroke:#e03768;stroke-width:15;stroke-linecap:round;stroke-linejoin:round;stroke-miterlimit:10;stroke-dasharray:none;stroke-opacity:1"
             id="path74" />
          <path
             d="m 656.555,662.52 h 14.199 l 3.598,0.101 h 3.5 l 3.601,0.098 3.5,0.203 3.5,0.098 3.602,0.199 3.5,0.301 3.597,0.199 3.5,0.301 3.602,0.402 3.5,0.398 3.598,0.399 3.5,0.402 3.5,0.301 3.601,0.398 3.5,0.301 3.598,0.199 3.5,0.102 3.601,0.098 3.5,0.101 h 3.602 l 3.5,0.098 3.5,0.101 3.598,0.102 3.5,0.199 3.601,0.098 3.5,0.203 3.598,0.199 3.5,0.199 3.5,0.102 h 3.601 3.5 l 3.602,-0.102 h 3.5 3.598 l 3.5,0.102 3.601,0.199 3.5,0.301 3.5,0.5 3.598,0.598 3.5,0.5 3.601,0.601 3.5,0.399 3.602,0.3 3.5,0.2 3.598,0.101 3.5,-0.101 h 3.5 l 3.597,-0.098 3.5,-0.102 h 3.602 3.5 3.601 l 3.5,0.102 3.5,0.098 3.598,0.101 3.5,0.098 3.602,0.101 3.5,0.102 3.597,0.098 3.5,0.101 3.602,0.098 3.5,0.101 3.5,0.2 3.601,0.199 3.5,0.203 3.598,0.098 h 3.5 3.602 l 3.5,-0.098 3.597,-0.203 3.5,-0.297 3.5,-0.203 3.602,-0.098 3.5,-0.199 h 3.601 l 3.5,0.098 3.598,0.101 3.5,0.199 3.602,0.2 3.5,0.199 3.5,0.203 3.597,0.199 3.5,0.199 3.602,0.2 3.5,0.101 3.597,0.098 3.5,0.101 3.5,0.2 3.602,0.199 3.5,0.301 3.602,0.5 3.498,0.5 3.6,0.699 3.5,0.601 3.6,0.602 3.5,0.5 3.5,0.5 3.6,0.297 3.5,0.301 3.6,0.199 3.5,0.301 3.6,0.199 3.5,0.301 3.6,0.402 3.5,0.398 3.5,0.602 3.6,0.598 3.5,0.699 3.6,0.703 3.5,0.699 3.6,0.699 3.5,0.602 3.5,0.598 3.6,0.601 3.5,0.699 3.6,0.899 3.5,1.101 3.6,1.2 3.5,1.101 3.6,1.098 3.5,0.801 3.5,0.5 3.6,0.3 3.5,0.2 3.6,0.101 3.5,0.098 3.6,0.402 3.5,0.5 3.6,0.699 3.5,0.899 3.5,1 3.6,1.203 3.5,1.398 3.6,1.5 3.5,1.602 3.6,1.797 3.5,1.801 3.5,1.902 3.6,1.898 3.5,2 3.6,2.102 3.5,2.199 3.6,2.301 3.5,2.398 3.6,2.301 3.5,2.098 3.5,1.902 3.6,1.399 3.5,1.101 3.6,0.801 3.5,0.598 3.6,0.699 3.5,1 3.6,1.5 3.5,2.203 3.5,3 3.6,3.797 3.5,4.402 3.6,4.801 3.5,4.797 3.6,4.601 3.5,4 3.6,3.399 3.5,2.703 3.5,2.098 3.6,1.8 3.5,1.5 3.6,1.399 3.5,1.301 3.6,1.101 3.5,0.801 3.5,0.5 h 3.6 l 3.5,-0.301 3.6,-0.801 3.5,-1.199 3.6,-1.402 3.5,-1.797 3.6,-2 3.5,-2.102 3.5,-2.101 3.6,-2 3.5,-2 3.6,-1.797 3.5,-1.602 3.6,-1.601 3.5,-1.598 3.6,-1.5 3.5,-1.699 3.5,-1.703 3.6,-1.598 3.5,-1.601 3.6,-1.399 3.5,-1.101 3.6,-0.899 3.5,-0.699 3.5,-0.602 3.6,-0.601 3.5,-0.598 3.6,-0.902 3.5,-1.199 3.6,-1.399 3.5,-1.801 3.6,-2 3.5,-2.101 3.5,-2 3.6,-1.899 3.5,-1.5 3.6,-1.199 3.5,-0.801 3.6,-0.5 3.5,-0.199 h 3.6 l 3.5,0.301 3.5,0.5 3.6,0.797 3.5,0.902 3.6,0.899 3.5,0.902 3.6,0.797 3.5,0.5 3.5,0.301 3.6,0.101 h 3.5 l 3.6,0.098 3.5,0.101 3.6,0.2 3.5,0.601 3.6,0.899 3.5,1.402 3.5,2 3.6,2.5 3.5,3.199 3.6,3.699 3.5,4.301 3.6,4.899 3.5,5.699 3.6,6.402 3.5,7.098 3.5,7.601 3.6,7.602 3.5,7.5 3.6,6.898 3.5,6.301 3.6,5.801 3.5,5.797 3.6,6.402 3.5,7.699 3.5,9.399 3.6,11.601 3.5,14.102 3.6,16.797 3.5,19.5 3.6,22.203 3.5,25.098 3.5,27.902 3.6,30.498 3.5,33 3.6,34.9 3.5,36.5 3.6,37.8 3.5,38.7 3.6,39.6 3.5,40.2 3.5,40.4 3.6,40.2 3.5,39.3 3.6,37.6 3.5,35.3 3.6,32.6 3.5,29.8 3.6,27.4 3.5,25.2 3.5,23.3 3.6,21.3 3.5,19.3 3.6,16.8 3.5,13.9 3.6,10.2 3.5,5.9 3.5,1.2 3.6,-4.1 3.5,-9.2 3.6,-14.2 3.5,-18.7 3.6,-22.3 3.5,-25.5 3.6,-28 3.5,-29.8 3.5,-31.4 3.6,-32.4 3.5,-32.8 3.6,-32.6 3.5,-31.6 3.6,-29.9 3.5,-27.5 3.6,-24.8 3.5,-21.7 3.5,-18.5 3.6,-15.3 3.5,-11.7 3.6,-8.1 3.5,-4.3 3.6,-0.8 3.5,2.5 3.6,4.5 3.5,5.3 3.5,4.7 3.6,2.6 3.5,-0.1 3.6,-3.3 3.5,-6.6 3.6,-9.4 3.5,-11.7 3.5,-13.1 3.6,-14 3.5,-14.2 3.6,-14.1 3.5,-13.4 3.6,-12.7 3.5,-11.5 3.6,-10.3 3.5,-8.9 3.5,-7.5 3.6,-6.2 3.5,-5 3.6,-3.9 3.5,-2.4 3.6,-0.6 3.5,1.7 3.6,4.4 3.5,6.9 3.5,8.3 3.6,7.8 3.5,4.5 3.6,-1.7 3.5,-10.2 3.6,-19.9 3.5,-28.9 3.5,-35.6 3.6,-38.901 3.5,-38.297 3.6,-34.5 3.5,-28.703 3.6,-21.699 3.5,-14.098 3.6,-6.602 3.5,0.801 3.5,7.199 3.6,12.301 3.5,15.098 3.6,14.601 3.5,10.899 3.6,4.101 3.5,-4.601 3.6,-13.399 3.5,-20.8 3.5,-25.2 3.6,-26 3.5,-23.601 3.6,-19.297 3.5,-14.301 3.6,-9.5 3.5,-5.801 3.5,-3.199 3.6,-1.801 3.5,-1.3 3.6,-1.598 3.5,-2.102 3.6,-2.8 3.5,-3.2 3.6,-3.398 3.5,-3.5 3.5,-3.301 3.6,-3 3.5,-2.601 3.6,-2.2 3.5,-1.898 3.6,-1.602 3.5,-1.601 3.6,-1.5 3.5,-1.598 3.5,-1.699 3.6,-1.703 3.5,-1.598 3.6,-1.402 3.5,-1.297 3.6,-1 3.5,-0.801 3.6,-0.601 3.5,-0.399 3.5,-0.301 3.6,-0.3 3.5,-0.399 3.6,-0.5 3.5,-0.5 3.6,-0.601 3.5,-0.5 3.5,-0.399 3.6,-0.301 3.5,-0.3 3.6,-0.098 h 3.5 l 3.6,-0.102 3.5,-0.101 3.6,-0.199 3.5,-0.301 3.5,-0.297 3.6,-0.402 3.5,-0.5 3.6,-0.399 3.5,-0.5 3.6,-0.402 3.5,-0.399 3.6,-0.398 3.5,-0.301 3.5,-0.301 3.6,-0.3 3.5,-0.2 3.6,-0.101 3.5,-0.098 3.6,-0.101 h 3.5 3.5 l 3.6,0.101 3.5,0.098 3.6,0.101 3.5,0.102 h 3.6 l 3.5,-0.102 3.6,-0.199 3.5,-0.402 3.5,-0.399 3.6,-0.5 3.5,-0.5 3.6,-0.5 3.5,-0.3 3.6,-0.2 h 3.5 3.6 l 3.5,0.2 3.5,0.101 3.6,0.199 3.5,0.102 h 3.6 3.5 l 3.6,-0.102 3.5,-0.101 3.6,-0.098 h 3.5 3.5 l 3.6,0.199 3.5,0.2 3.6,0.199 3.5,0.301 3.6,0.3 3.5,0.2 3.5,0.199 3.6,0.101 h 3.5 3.6 l 3.5,-0.101 3.6,-0.098 h 3.5 l 3.6,-0.101 3.5,0.101 3.5,0.098 3.6,0.203 3.5,0.199 3.6,0.301 3.5,0.297 3.6,0.402 3.5,0.301 3.6,0.199 3.5,0.199 3.5,0.2 3.6,0.199 3.5,0.203 3.6,0.098 3.5,0.101 3.6,0.098 3.5,0.101 3.5,-0.101 3.6,-0.098 3.5,-0.301 3.6,-0.398 3.5,-0.5 3.6,-0.5 3.5,-0.703 3.6,-0.699 3.5,-0.598 3.5,-0.703 3.6,-0.598 3.5,-0.601 3.6,-0.598 3.5,-0.5 3.6,-0.5 3.5,-0.402 3.6,-0.301 3.5,-0.297 3.5,-0.102 3.6,-0.199 h 3.5 l 3.6,-0.101 h 3.5 3.6"
             style="fill:none;stroke:#63c440;stroke-width:15;stroke-linecap:round;stroke-linejoin:round;stroke-miterlimit:10;stroke-dasharray:45, 75;stroke-dashoffset:0;stroke-opacity:1"
             id="path76" />
          <path
             d="m 648.852,662.52 h 7.101 l 3.602,0.101 3.5,0.098 3.597,0.101 3.5,0.301 3.5,0.399 3.602,0.601 3.5,0.801 3.598,1 3.5,1.297 3.601,1.402 3.5,1.5 3.5,1.399 3.598,1.402 3.504,1.199 3.597,1.098 3.5,0.801 3.602,0.8 3.5,0.602 3.5,0.598 3.598,0.8 3.5,0.899 3.601,1.402 3.5,1.801 3.598,2.199 3.5,2.399 3.5,2.101 3.601,1.598 3.5,0.801 3.602,0.101 3.5,-0.699 3.5,-1.203 3.598,-1.598 3.5,-1.601 3.601,-1.598 3.5,-1.5 3.598,-1.301 3.5,-1 3.5,-0.801 3.601,-0.601 3.5,-0.598 3.602,-0.5 3.5,-0.5 3.598,-0.699 3.5,-0.703 3.5,-0.598 3.601,-0.5 3.496,-0.301 3.602,-0.101 3.5,0.203 3.601,0.199 h 3.5 l 3.5,-0.199 3.598,-0.602 3.5,-0.699 3.602,-0.801 3.5,-0.699 3.597,-0.402 3.5,-0.199 3.5,-0.098 h 3.602 l 3.5,-0.102 3.601,-0.101 3.5,-0.199 3.598,-0.098 3.5,-0.102 h 3.5 l 3.602,0.2 3.5,0.199 3.597,0.301 3.5,0.199 3.602,0.301 3.5,0.199 3.5,0.301 3.601,0.3 3.5,0.399 3.598,0.402 3.5,0.598 3.602,0.5 3.5,0.5 3.5,0.5 3.597,0.5 3.5,0.5 3.602,0.5 3.5,0.601 3.601,0.602 3.496,0.598 3.5,0.699 3.602,0.703 3.5,0.898 3.602,0.801 3.5,0.801 3.597,0.699 3.5,0.598 3.5,0.402 3.602,0.301 3.5,0.398 3.597,0.399 3.502,0.5 3.6,0.801 3.5,1 3.5,1.101 3.6,1.301 3.5,1.398 3.6,1.399 3.5,1.402 3.6,1.5 3.5,1.399 3.5,1.199 3.6,1 3.5,0.601 3.6,0.2 3.5,-0.098 3.6,-0.102 h 3.5 l 3.5,0.301 3.6,0.801 3.5,1.199 3.6,1.699 3.5,2.2 3.6,2.5 3.5,2.699 3.5,2.703 3.6,2.398 3.5,1.899 3.6,1.402 3.5,0.899 3.6,0.699 3.5,0.601 3.5,1 3.6,1.5 3.5,2.102 3.6,2.699 3.5,3.098 3.6,3.5 3.5,3.5 3.5,3.5 3.6,3.203 3.5,2.898 3.6,2.801 3.5,2.899 3.6,3.402 3.5,3.898 3.5,4.399 3.6,5 3.5,5.101 3.6,5 3.5,4.801 3.6,4.5 3.5,4.301 3.5,3.898 3.6,3.602 3.5,2.699 3.6,1.699 3.5,0.801 h 3.6 l 3.5,-0.402 3.5,-0.399 3.6,-0.5 3.5,-0.601 3.6,-1.297 3.5,-2 3.6,-2.902 3.5,-3.5 3.5,-3.598 3.6,-3 3.5,-2 3.6,-1 3.5,-0.203 3.5,0.203 3.6,0.297 3.5,-0.098 3.6,-0.5 3.5,-1 3.6,-1.402 3.5,-1.699 3.5,-1.899 3.6,-2 3.5,-2 3.6,-2 3.5,-2 3.6,-1.902 3.5,-1.899 3.5,-1.898 3.6,-1.902 3.5,-2.098 3.6,-2.301 3.5,-2.601 3.6,-2.899 3.5,-3.101 3.5,-3.2 3.6,-2.898 3.5,-2.203 3.6,-1.297 3.5,-0.203 3.6,1 3.5,2 3.5,3.101 3.6,3.899 3.5,4.5 3.6,4.601 3.5,4.5 3.6,4 3.5,3.399 3.5,3.101 3.6,2.899 3.5,3.101 3.6,3.801 3.5,4.699 3.6,5.801 3.5,6.801 3.5,7.5 3.6,8.098 3.5,8.8 3.6,9.602 3.5,10.898 3.6,12.399 3.5,13.902 3.5,15.098 3.6,15.703 3.5,15.898 3.6,15.602 3.5,15.797 3.6,16.5 3.5,18.203 3.5,20.898 3.6,24 3.5,26.8 3.6,29 3.5,30.4 3.6,31.4 3.5,32.6 3.5,34.5 3.6,37.5 3.5,41.4 3.6,45.2 3.5,48.6 3.6,51.2 3.5,53 3.5,54 3.6,54.2 3.5,53.5 3.6,51.9 3.5,48.9 3.6,44.7 3.5,39.3 3.5,32.4 3.6,24.6 3.5,15.9 3.6,6.7 3.5,-2.5 3.6,-11.4 3.5,-20.1 3.5,-28.1 3.6,-35.6 3.5,-41.5 3.6,-45.4 3.5,-47.1 3.6,-47.1 3.5,-45.3 3.5,-42.7 3.6,-39.5 3.5,-35.9 3.6,-32.6 3.5,-29.5 3.6,-26.5 3.5,-23.9 3.5,-21.1 3.6,-18.4 3.5,-15.3 3.6,-11.9 3.5,-8.6 3.6,-5.5 3.5,-3.2 3.5,-2.4 3.6,-3.4 3.5,-6 3.6,-9.7 3.5,-13.6 3.6,-17 3.5,-19.5 3.5,-20.9 3.6,-21 3.5,-19.9 3.6,-17.8 3.5,-14.7 3.6,-11.5 3.5,-8.3 3.5,-5.2 3.6,-2.1 3.5,1.5 3.6,5.8 3.5,9.9 3.6,12 3.5,10.2 3.5,2.7 3.6,-10.5 3.5,-25.7 3.6,-38.8 3.5,-46.8 3.5,-48.499 3.6,-44.801 3.5,-37.601 3.6,-29.098 3.5,-21.101 3.6,-13.399 3.5,-6 3.5,2.098 3.6,10.801 3.5,19.601 3.6,26.399 3.5,28.699 3.6,24.703 3.5,14.398 3.5,-0.5 3.6,-16 3.5,-28.601 3.6,-35.399 3.5,-35.8 3.6,-32.098 3.5,-26.301 3.5,-20.199 3.6,-14.902 3.5,-10.399 3.6,-7 3.5,-4.601 3.6,-2.899 3.5,-1.902 3.5,-1.598 3.6,-1.601 3.5,-1.899 3.6,-2.101 3.5,-2.2 3.6,-2 3.5,-2 3.5,-1.699 3.6,-1.699 3.5,-1.703 3.6,-1.797 3.5,-1.902 3.6,-1.801 3.5,-1.797 3.5,-1.5 3.6,-1.301 3.5,-0.902 3.6,-0.699 3.5,-0.5 3.6,-0.301 3.5,-0.199 h 3.5 3.6 3.5 l 3.6,0.101 3.5,0.098 3.6,0.101 3.5,0.2 3.5,0.101 h 3.6 l 3.5,0.098 h 3.6 3.5 l 3.6,-0.199 3.5,-0.2 3.5,-0.3 3.6,-0.301 3.5,-0.399 3.6,-0.3 3.5,-0.301 3.6,-0.199 3.5,-0.098 3.5,-0.102 h 3.6 l 3.5,-0.101 3.6,-0.098 3.5,-0.199 3.6,-0.203 3.5,-0.199 3.5,-0.2 3.6,-0.199 3.5,-0.101 3.6,-0.2 3.5,-0.101 3.6,-0.098 3.5,-0.101 3.5,-0.2 3.6,-0.199 3.5,-0.199 3.6,-0.102 3.5,-0.101 3.6,-0.098 h 3.5 3.5 l 3.6,0.098 3.5,0.101 3.6,0.2 3.5,0.3 3.6,0.301 3.5,0.399 3.5,0.3 3.6,0.2 3.5,0.199 h 3.6 l 3.5,-0.098 3.6,-0.199 3.5,-0.301 3.5,-0.199 3.6,-0.102 3.5,-0.101 h 3.6 l 3.5,0.101 3.6,0.102 h 3.5 3.5 3.6 l 3.5,-0.203 3.6,-0.098 3.5,-0.199 3.6,-0.203 3.5,-0.098 3.5,-0.199 3.6,-0.102 h 3.5 3.6 3.5 l 3.6,0.102 3.5,0.098 3.5,0.199 3.6,0.101 3.5,0.102 3.6,0.199 3.5,0.098 3.6,0.203 3.5,0.098 3.5,0.101 3.6,-0.101 3.5,-0.098 3.6,-0.203 3.5,-0.297 3.5,-0.301 3.6,-0.199 3.5,-0.102 h 3.6 3.5 l 3.6,0.2 3.5,0.199 3.5,0.203 3.6,0.297 3.5,0.301 3.6,0.3 3.5,0.2 3.6,0.199 3.5,0.101 3.5,-0.199 3.6,-0.199 3.5,-0.402 3.6,-0.399 3.5,-0.301 3.6,-0.3 3.5,-0.2 3.5,-0.101 h 3.6 l 3.5,0.101 3.6,0.102 3.5,0.098 3.6,0.101 3.5,0.098 3.5,0.101 h 3.6 l 3.5,0.2 3.6,0.101 3.5,0.199 3.6,0.301 3.5,0.199 3.5,0.301 3.6,0.098 3.5,0.101 h 3.6 3.5 3.6 3.5 3.5 l 3.6,0.102 3.5,0.098 3.6,0.101 3.5,0.199 3.6,0.102 h 3.5 l 3.5,0.098 3.6,-0.098 h 3.5 l 3.6,-0.102 3.5,-0.101 3.6,-0.098 3.5,-0.101 3.5,-0.098 3.6,-0.203 3.5,-0.199 3.6,-0.301 3.5,-0.399 3.6,-0.5 3.5,-0.398 3.5,-0.5 3.6,-0.301 3.5,-0.199 3.6,-0.203 3.5,-0.098 3.6,-0.101 h 3.5 3.5 3.6"
             style="fill:none;stroke:#4f92d4;stroke-width:15;stroke-linecap:round;stroke-linejoin:round;stroke-miterlimit:10;stroke-dasharray:45, 75;stroke-dashoffset:0;stroke-opacity:1"
             id="path78" />
        </g>
      </g>
      <path
         d="m 650.254,2073.72 v -57.6 h 69.098 v 57.6 h -69.098"
         style="fill:#100f0d;fill-opacity:1;fill-rule:nonzero;stroke:none"
         id="path80" />
      <path
         d="m 650.254,2073.72 v -57.6 h 69.098 v 57.6 z"
         style="fill:none;stroke:#100f0d;stroke-width:7.5;stroke-linecap:round;stroke-linejoin:round;stroke-miterlimit:10;stroke-dasharray:none;stroke-opacity:1"
         id="path82" />
      <path
         d="m 650.254,1958.52 v -57.6 h 69.098 v 57.6 h -69.098"
         style="fill:#e03768;fill-opacity:1;fill-rule:nonzero;stroke:none"
         id="path84" />
      <path
         d="m 650.254,1958.52 v -57.6 h 69.098 v 57.6 z"
         style="fill:none;stroke:#100f0d;stroke-width:7.5;stroke-linecap:round;stroke-linejoin:round;stroke-miterlimit:10;stroke-dasharray:none;stroke-opacity:1"
         id="path86" />
      <path
         d="m 650.254,1843.32 v -57.6 h 69.098 v 57.6 h -69.098"
         style="fill:#63c440;fill-opacity:1;fill-rule:nonzero;stroke:none"
         id="path88" />
      <path
         d="m 650.254,1843.32 v -57.6 h 69.098 v 57.6 z"
         style="fill:none;stroke:#100f0d;stroke-width:7.5;stroke-linecap:round;stroke-linejoin:round;stroke-miterlimit:10;stroke-dasharray:none;stroke-opacity:1"
         id="path90" />
      <path
         d="m 650.254,1728.12 v -57.6 h 69.098 v 57.6 h -69.098"
         style="fill:#4f92d4;fill-opacity:1;fill-rule:nonzero;stroke:none"
         id="path92" />
      <path
         d="m 650.254,1728.12 v -57.6 h 69.098 v 57.6 z"
         style="fill:none;stroke:#100f0d;stroke-width:7.5;stroke-linecap:round;stroke-linejoin:round;stroke-miterlimit:10;stroke-dasharray:none;stroke-opacity:1"
         id="path94" />
      <g
         id="g96"
         transform="scale(10)">
        <text
           xml:space="preserve"
           transform="matrix(1,0,0,-1,80.5852,200.896)"
           style="font-variant:normal;font-weight:normal;font-size:10px;font-family:Helvetica;-inkscape-font-specification:Helvetica;writing-mode:lr-tb;fill:#100f0d;fill-opacity:1;fill-rule:nonzero;stroke:none"
           id="text106"><tspan
             x="0 6.1100001 12.78 21.110001 26.950001 32.790001 38.349998 41.130001"
             y="0"
             sodipodi:role="line"
             id="tspan98">TPM&gt;=0.1</tspan><tspan
             x="0 6.1100001 12.78 21.110001 26.950001 32.790001 38.349998 41.130001"
             y="11.5156"
             sodipodi:role="line"
             id="tspan100">TPM&gt;=1.0</tspan><tspan
             x="0 7.2199998 13.89 20.559999 28.889999 34.73 40.57 46.130001 48.91"
             y="23.0312"
             sodipodi:role="line"
             id="tspan102">RPKM&gt;=0.3</tspan><tspan
             x="0 7.2199998 13.89 20.559999 28.889999 34.73 40.57 46.130001 48.91"
             y="34.546799"
             sodipodi:role="line"
             id="tspan104">RPKM&gt;=1.0</tspan></text>
      </g>
      <g
         id="g108">
        <g
           id="g110"
           clip-path="url(#clipPath114)">
          <path
             d="m 3517.45,663.02 3.6,0.101 3.7,0.098 3.6,0.203 3.6,0.199 3.6,0.199 3.6,0.301 3.6,0.301 3.6,0.398 3.6,0.399 3.6,0.601 3.6,0.5 3.6,0.7 3.6,0.8 3.6,1 3.6,1 3.6,1.2 3.6,1.402 3.6,1.5 3.6,1.797 3.6,2 3.6,2.101 3.6,2.5 3.6,2.801 3.6,3.098 3.6,3.301 3.6,3.699 3.6,4.203 3.6,4.5 3.6,4.898 3.6,5.2 3.6,5.8 3.6,6.2 3.6,6.699 3.6,7.203 3.6,7.5 3.6,8.199 3.6,8.598 3.6,9.101 3.6,9.5 3.6,9.899 3.6,10.5 3.6,10.801 3.6,11.199 3.6,11.601 3.6,11.801 3.6,12.199 3.6,12.399 3.6,12.601 3.6,12.602 3.6,12.797 3.6,12.801 3.6,12.699 3.6,12.601 3.6,12.5 3.6,12.301 3.6,11.899 3.6,11.601 3.6,11.299 3.6,10.9 3.6,10.2 3.6,9.8 3.6,9.2 3.6,8.6 3.6,8 3.6,7.2 3.6,6.5 3.6,5.9 3.6,5.2 3.6,4.5 3.6,3.6 3.6,3 3.6,2.3 3.6,1.7 3.6,0.9 3.6,0.3 3.6,-0.3 3.6,-0.9 3.6,-1.3 3.6,-2 3.6,-2.4 3.6,-2.8 3.6,-3.2 3.6,-3.6 3.6,-3.9 3.6,-4.2 3.6,-4.3 3.6,-4.6 3.6,-4.7 3.6,-4.9 3.6,-5 3.6,-5.1 3.6,-5 3.6,-5.1 3.6,-5.1 3.6,-5.1 3.6,-5 3.6,-4.9 3.6,-4.9 3.6,-4.8 3.6,-4.6 3.6,-4.6 3.6,-4.4 3.6,-4.301 3.6,-4.199 3.6,-4.098 3.6,-3.902 3.6,-3.801 3.6,-3.699 3.6,-3.5 3.6,-3.399 3.6,-3.301 3.6,-3.199 3.6,-3.101 3.6,-2.899 3.6,-2.902 3.6,-2.797 3.6,-2.703 3.6,-2.598 3.6,-2.5 3.6,-2.5 3.6,-2.402 3.6,-2.297 3.6,-2.301 3.6,-2.199 3.6,-2.203 3.6,-2.098 3.6,-2.101 3.6,-2.098 3.6,-2 3.7,-1.902 3.6,-2 3.6,-1.899 3.6,-1.801 3.6,-1.8 3.6,-1.801 3.6,-1.797 3.6,-1.703 3.6,-1.699 3.6,-1.598 3.6,-1.602 3.6,-1.601 3.6,-1.5 3.6,-1.399 3.6,-1.398 3.6,-1.402 3.6,-1.301 3.6,-1.297 3.6,-1.203 3.6,-1.098 3.6,-1.101 3.6,-1.098 3.6,-1 3.6,-0.902 3.6,-0.899 3.6,-0.801 3.6,-0.699 3.6,-0.699 3.6,-0.602 3.6,-0.601 3.6,-0.5 3.6,-0.5 3.6,-0.399 3.6,-0.3 3.6,-0.399 3.6,-0.199 3.6,-0.203 3.6,-0.199 3.6,-0.098 3.6,-0.102 h 3.6 3.6 3.6 l 3.6,0.102 h 3.6 l 3.6,0.098 3.6,0.199 3.6,0.101 3.6,0.102 3.6,0.199 3.6,0.098 3.6,0.203 3.6,0.098 3.6,0.199 3.6,0.101 3.6,0.102 3.6,0.098 3.6,0.101 3.6,0.098 3.6,0.101 h 3.6 3.6 3.6 3.6 l 3.6,-0.101 3.6,-0.098 3.6,-0.101 3.6,-0.098 3.6,-0.203 3.6,-0.199 3.6,-0.2 3.6,-0.199 3.6,-0.199 3.6,-0.301 3.6,-0.301 3.6,-0.3 3.6,-0.2 3.6,-0.3 3.6,-0.301 3.6,-0.297 3.6,-0.301 3.6,-0.301 3.6,-0.3 3.6,-0.301 3.6,-0.297 3.6,-0.301 3.6,-0.199 3.6,-0.203 3.6,-0.199 3.6,-0.2 3.6,-0.199 3.6,-0.101 3.6,-0.2 3.6,-0.101 h 3.6 l 3.6,-0.098 h 3.6 3.6 3.6 3.6 l 3.6,0.098 h 3.6 l 3.6,0.101 3.6,0.102 3.6,0.098 3.6,0.101 3.6,0.098 3.6,0.101 3.6,0.2 3.6,0.101 3.6,0.098 3.6,0.101 h 3.6 l 3.6,0.102 3.6,0.098 h 3.6 3.6 3.6 3.6 l 3.6,-0.098 3.6,-0.102 3.6,-0.101 3.6,-0.098 3.6,-0.101 3.6,-0.2 3.6,-0.101 3.6,-0.199 3.6,-0.2 3.7,-0.199 3.6,-0.301 3.6,-0.199 3.6,-0.199 3.6,-0.301 3.6,-0.199 3.6,-0.203 3.6,-0.297 3.6,-0.203 3.6,-0.199 3.6,-0.2 3.6,-0.101 3.6,-0.199 3.6,-0.098 3.6,-0.102 3.6,-0.101 h 3.6 l 3.6,-0.098 h 3.6 l 3.6,0.098 h 3.6 l 3.6,0.101 3.6,0.102 3.6,0.098 3.6,0.101 3.6,0.098 3.6,0.203 3.6,0.199 3.6,0.098 3.6,0.203 3.6,0.199 3.6,0.199 3.6,0.102 3.6,0.199 3.6,0.098 3.6,0.101 3.6,0.2 3.6,0.101 h 3.6 l 3.6,0.098 h 3.6 3.6 3.6 3.6 l 3.6,-0.098 h 3.6 l 3.6,-0.101 3.6,-0.098 3.6,-0.102 3.6,-0.101 3.6,-0.098 3.6,-0.199 3.6,-0.102 3.6,-0.101 3.6,-0.098 3.6,-0.101 h 3.6 3.6 l 3.6,-0.098 3.6,0.098 h 3.6 l 3.6,0.101 3.6,0.098 3.6,0.203 3.6,0.199 3.6,0.199 3.6,0.301 3.6,0.399 3.6,0.3 3.6,0.5 3.6,0.399 3.6,0.601 3.6,0.5 3.6,0.7 3.6,0.601 3.6,0.699 3.6,0.801 3.6,0.801 3.6,0.797 3.6,0.801 3.6,1 3.6,0.902 3.6,1 3.6,1 3.6,1.098 3.6,1.101 3.6,1.098 3.6,1.203 3.6,1.199 3.6,1.301 3.6,1.297 3.6,1.301 3.6,1.402 3.6,1.398 3.6,1.5 3.6,1.602 3.6,1.598 3.6,1.601 3.6,1.699 3.6,1.801 3.6,1.899 3.6,1.902 3.6,2 3.6,2.098 3.6,2.101 3.6,2.301 3.6,2.398 3.6,2.399 3.6,2.601 3.6,2.7 3.6,2.8 3.6,3 3.6,3 3.6,3.2 3.6,3.402 3.6,3.598 3.6,3.601 3.6,3.899 3.6,4 3.6,4.3 3.6,4.399 3.6,4.703 3.6,4.797 3.6,5.101 3.6,5.399 3.6,5.5 3.6,5.902 3.7,6.099 3.6,6.5 3.6,6.7 3.6,7.1 3.6,7.3 3.6,7.8 3.6,8.2 3.6,8.6 3.6,8.9 3.6,9.4 3.6,9.9 3.6,10.4 3.6,10.9 3.6,11.4 3.6,11.9 3.6,12.6 3.6,13.3 3.6,13.8 3.6,14.5 3.6,15.2 3.6,16 3.6,16.7 3.6,17.5 3.6,18.1 3.6,19 3.6,19.9 3.6,20.7 3.6,21.5 3.6,22.1 3.6,23.1 3.6,23.9 3.6,24.6 3.6,25.2 3.6,25.9 3.6,26.5 3.6,27.1 3.6,27.5 3.6,27.9 3.6,28.1 3.6,28.4 3.6,28.3 3.6,28.3 3.6,28 3.6,27.7 3.6,27 3.6,26.3 3.6,25.4 3.6,24.5 3.6,23.2 3.6,21.5 3.6,19.9 3.6,18.4 3.6,16.4 3.6,14.1 3.6,11.6 3.6,9.3 3.6,7 3.6,4.4 3.6,1 3.6,-1.8 3.6,-4.5 3.6,-7.3 3.6,-10.1 3.6,-13.9 3.6,-16.5 3.6,-19.2 3.6,-21.9 3.6,-24.6 3.6,-27.6 3.6,-29.8 3.6,-31.8 3.6,-33.9 3.6,-35.8 3.6,-37.6 3.6,-38.9 3.6,-40.1 3.6,-40.9 3.6,-41.7 3.6,-42.2 3.6,-42.4 3.6,-42.4 3.6,-42.2 3.6,-41.8 3.6,-41.1 3.6,-40.3 3.6,-39.4 3.6,-38.4 3.6,-36.8 3.6,-35.6 3.6,-34.2 3.6,-32.7 3.6,-31.2 3.6,-29.2 3.6,-27.601 3.6,-26.098 3.6,-24.601 3.6,-22.7 3.6,-21 3.6,-19.398 3.6,-18.102 3.6,-16.699 3.6,-15 3.6,-13.601 3.6,-12.5 3.6,-11.399 3.6,-10.301 3.6,-9 3.6,-8.101 3.6,-7.297 3.6,-6.5 3.6,-5.801 3.6,-4.902 3.6,-4.399 3.6,-3.898 3.6,-3.402 3.6,-3 3.6,-2.5 3.6,-2.098 3.6,-1.902 3.6,-1.7 3.6,-1.3 3.6,-1.2 3.6,-1 3.6,-0.8 3.6,-0.7 3.6,-0.601 3.6,-0.5"
             style="fill:none;stroke:#100f0d;stroke-width:15;stroke-linecap:round;stroke-linejoin:round;stroke-miterlimit:10;stroke-dasharray:none;stroke-opacity:1"
             id="path116" />
        </g>
      </g>
      <path
         d="m 5175.55,604.922 v -72 m -295.2,72 v -72 m -295.1,72 v -72 m -295.2,72 v -72 m -295.2,72 v -72 m -295.1,72 v -72 m 0,72 h 1475.8"
         style="fill:none;stroke:#100f0d;stroke-width:7.5;stroke-linecap:round;stroke-linejoin:round;stroke-miterlimit:10;stroke-dasharray:none;stroke-opacity:1"
         id="path118" />
      <g
         id="g120"
         transform="scale(10)">
        <text
           xml:space="preserve"
           transform="matrix(1,0,0,-1,361.632,34.568)"
           style="font-variant:normal;font-weight:normal;font-size:12px;font-family:Helvetica;-inkscape-font-specification:Helvetica;writing-mode:lr-tb;fill:#100f0d;fill-opacity:1;fill-rule:nonzero;stroke:none"
           id="text124"><tspan
             x="0 6.6719999 10.008 29.514839 36.18684 39.522839 59.03904 65.711037 69.047043 88.555077 95.227081 98.56308 118.06212 124.73412 128.07011 147.58595 154.25797 157.59396"
             y="0"
             sodipodi:role="line"
             id="tspan122">0.00.20.40.60.81.0</tspan></text>
      </g>
      <path
         d="m 3443.85,2102.52 h -72 m 72,-205.7 h -72 m 72,-205.8 h -72 m 72,-205.7 h -72 m 72,-205.7 h -72 m 72,-205.7 h -72 m 72,-205.701 h -72 m 72,-205.699 h -72 m 72,0 v 1440"
         style="fill:none;stroke:#100f0d;stroke-width:7.5;stroke-linecap:round;stroke-linejoin:round;stroke-miterlimit:10;stroke-dasharray:none;stroke-opacity:1"
         id="path126" />
      <g
         id="g128"
         transform="scale(10)">
        <text
           xml:space="preserve"
           transform="matrix(1,0,0,-1,313.304,61.943)"
           style="font-variant:normal;font-weight:normal;font-size:12px;font-family:Helvetica;-inkscape-font-specification:Helvetica;writing-mode:lr-tb;fill:#100f0d;fill-opacity:1;fill-rule:nonzero;stroke:none"
           id="text146"><tspan
             x="0 6.6719999 10.008"
             y="0"
             sodipodi:role="line"
             id="tspan130">0.0</tspan><tspan
             x="0 6.6719999 10.008"
             y="-20.562901"
             sodipodi:role="line"
             id="tspan132">0.5</tspan><tspan
             x="0 6.6719999 10.008"
             y="-41.133202"
             sodipodi:role="line"
             id="tspan134">1.0</tspan><tspan
             x="0 6.6719999 10.008"
             y="-61.710899"
             sodipodi:role="line"
             id="tspan136">1.5</tspan><tspan
             x="0 6.6719999 10.008"
             y="-82.281998"
             sodipodi:role="line"
             id="tspan138">2.0</tspan><tspan
             x="0 6.6719999 10.008"
             y="-102.8597"
             sodipodi:role="line"
             id="tspan140">2.5</tspan><tspan
             x="0 6.6719999 10.008"
             y="-123.43"
             sodipodi:role="line"
             id="tspan142">3.0</tspan><tspan
             x="0 6.6719999 10.008"
             y="-143.99249"
             sodipodi:role="line"
             id="tspan144">3.5</tspan></text>
      </g>
      <path
         d="m 3443.85,604.922 h 1987.2 V 2160.12 h -1987.2 z"
         style="fill:none;stroke:#100f0d;stroke-width:7.5;stroke-linecap:round;stroke-linejoin:round;stroke-miterlimit:10;stroke-dasharray:none;stroke-opacity:1"
         id="path148" />
      <g
         id="g150"
         transform="scale(10)">
        <text
           xml:space="preserve"
           transform="matrix(1,0,0,-1,344.39,240.506)"
           style="font-variant:normal;font-weight:bold;font-size:14px;font-family:Helvetica;-inkscape-font-specification:Helvetica-Bold;writing-mode:lr-tb;fill:#100f0d;fill-opacity:1;fill-rule:nonzero;stroke:none"
           id="text154"><tspan
             x="0"
             y="0"
             id="tspan152">C</tspan></text>
        <text
           xml:space="preserve"
           transform="matrix(1,0,0,-1,368.39,5.772)"
           style="font-variant:normal;font-weight:normal;font-size:12px;font-family:Helvetica;-inkscape-font-specification:Helvetica;writing-mode:lr-tb;fill:#100f0d;fill-opacity:1;fill-rule:nonzero;stroke:none"
           id="text158"><tspan
             x="0 9.3360004 12 18.672001 25.344 32.015999 34.68 38.015999 44.328136 50.328136 57.000137 60.996136 67.668137 73.668137 79.668137 82.332138 89.004135 95.67614 99.012138 105.01214 111.68414 118.35614 124.35614 127.02013 130.35614 133.02014 139.02014 141.68414 145.02014"
             y="0"
             sodipodi:role="line"
             id="tspan156">Global expression specificity</tspan></text>
        <text
           xml:space="preserve"
           transform="matrix(0,1,1,0,298.304,118.49)"
           style="font-variant:normal;font-weight:normal;font-size:12px;font-family:Helvetica;-inkscape-font-specification:Helvetica;writing-mode:lr-tb;fill:#100f0d;fill-opacity:1;fill-rule:nonzero;stroke:none"
           id="text162"><tspan
             x="0 8.6660137 15.339857 22.013689 28.013689 30.679703 34.013687"
             y="0"
             sodipodi:role="line"
             id="tspan160">Density</tspan></text>
      </g>
      <g
         id="g164">
        <g
           id="g166"
           clip-path="url(#clipPath170)">
          <path
             d="m 3443.85,662.52 h 1987.2"
             style="fill:none;stroke:#bcbbb9;stroke-width:0.8;stroke-linecap:round;stroke-linejoin:round;stroke-miterlimit:10;stroke-dasharray:none;stroke-opacity:1"
             id="path172" />
          <path
             d="m 3501.65,664.82 3.6,0.399 3.7,0.5 3.7,0.703 3.6,0.699 3.7,0.801 3.6,1 3.7,1.199 3.7,1.301 3.6,1.5 3.7,1.699 3.6,2 3.7,2.199 3.7,2.602 3.6,2.898 3.7,3.2 3.7,3.699 3.6,4.101 3.7,4.5 3.6,5 3.7,5.7 3.7,6.3 3.6,6.801 3.7,7.5 3.7,8.098 3.6,9.101 3.7,9.801 3.6,10.5 3.7,11.301 3.7,12.199 3.6,13.199 3.7,14 3.7,14.801 3.6,15.598 3.7,16.801 3.6,17.5 3.7,18.3 3.7,19 3.6,19.899 3.7,20.703 3.6,21.297 3.7,21.801 3.7,22.3 3.6,22.8 3.7,23.1 3.7,23.3 3.6,23.5 3.7,23.5 3.6,23.4 3.7,23.1 3.7,22.9 3.6,22.5 3.7,21.7 3.7,21.1 3.6,20.4 3.7,19.5 3.6,18.4 3.7,17.2 3.7,16.1 3.6,14.9 3.7,13.7 3.6,12 3.7,10.5 3.7,9.2 3.6,7.8 3.7,6.3 3.7,4.5 3.6,3.1 3.7,1.8 3.6,0.4 3.7,-1.3 3.7,-2.5 3.6,-3.8 3.7,-4.9 3.7,-6 3.6,-7.3 3.7,-8.1 3.6,-9 3.7,-9.7 3.7,-10.5 3.6,-11.1 3.7,-11.6 3.7,-12 3.6,-12.4 3.7,-12.6 3.6,-12.8 3.7,-13 3.7,-12.9 3.6,-13 3.7,-12.8 3.6,-12.7 3.7,-12.6 3.7,-12.4 3.6,-12.1 3.7,-11.7 3.7,-11.6 3.6,-11.2 3.7,-10.9 3.6,-10.4 3.7,-10.2 3.7,-9.8 3.6,-9.5 3.7,-9.1 3.7,-8.7 3.6,-8.4 3.7,-8.2 3.6,-7.7 3.7,-7.5 3.7,-7.1 3.6,-6.9 3.7,-6.7 3.6,-6.4 3.7,-6.1 3.7,-5.9 3.6,-5.7 3.7,-5.5 3.7,-5.3 3.6,-5.1 3.7,-4.9 3.6,-4.8 3.7,-4.7 3.7,-4.4 3.6,-4.399 3.7,-4.199 3.7,-4.203 3.6,-4 3.7,-3.899 3.6,-3.699 3.7,-3.801 3.7,-3.5 3.6,-3.5 3.7,-3.5 3.7,-3.3 3.6,-3.301 3.7,-3.098 3.6,-3.101 3.7,-3.098 3.7,-2.902 3.6,-2.899 3.7,-2.801 3.6,-2.699 3.7,-2.699 3.7,-2.602 3.6,-2.5 3.7,-2.5 3.7,-2.398 3.6,-2.301 3.7,-2.301 3.6,-2.199 3.7,-2.101 3.7,-2.098 3.6,-2.102 3.7,-1.898 3.7,-1.902 3.6,-1.801 3.7,-1.797 3.6,-1.703 3.7,-1.598 3.7,-1.601 3.6,-1.598 3.7,-1.5 3.6,-1.402 3.7,-1.301 3.7,-1.297 3.6,-1.301 3.7,-1.199 3.71,-1.203 3.59,-1.098 3.7,-1.101 3.61,-1 3.7,-1 3.7,-0.899 3.6,-0.902 3.7,-0.899 3.69,-0.8 3.6,-0.801 3.71,-0.797 3.6,-0.801 3.7,-0.699 3.7,-0.703 3.6,-0.699 3.7,-0.7 3.7,-0.601 3.6,-0.699 3.7,-0.598 3.6,-0.602 3.7,-0.601 3.7,-0.598 3.6,-0.601 3.7,-0.598 3.6,-0.602 3.7,-0.601 3.7,-0.598 3.6,-0.5 3.7,-0.601 3.7,-0.598 3.6,-0.602 3.7,-0.601 3.6,-0.598 3.7,-0.601 3.69,-0.598 3.6,-0.602 3.7,-0.601 3.7,-0.699 3.6,-0.598 3.7,-0.602 3.6,-0.601 3.7,-0.699 3.7,-0.598 3.6,-0.602 3.7,-0.699 3.6,-0.601 3.7,-0.7 3.7,-0.601 3.6,-0.699 3.7,-0.598 3.7,-0.602 3.6,-0.699 3.7,-0.601 3.6,-0.598 3.7,-0.703 3.7,-0.598 3.6,-0.601 3.7,-0.598 3.7,-0.602 3.6,-0.601 3.7,-0.598 3.6,-0.5 3.7,-0.601 3.7,-0.5 3.6,-0.598 3.7,-0.5 3.7,-0.5 3.6,-0.5 3.7,-0.5 3.6,-0.402 3.7,-0.5 3.7,-0.399 3.6,-0.402 3.7,-0.399 3.6,-0.398 3.7,-0.402 3.7,-0.399 3.6,-0.301 3.7,-0.398 3.7,-0.301 3.6,-0.301 3.7,-0.3 3.6,-0.301 3.7,-0.399 3.7,-0.3 3.6,-0.301 3.7,-0.297 3.7,-0.301 3.6,-0.199 3.7,-0.301 3.6,-0.301 3.7,-0.3 3.7,-0.301 3.6,-0.297 3.7,-0.402 3.6,-0.301 3.7,-0.297 3.7,-0.301 3.6,-0.301 3.7,-0.3 3.7,-0.399 3.6,-0.301 3.7,-0.3 3.6,-0.301 3.7,-0.297 3.71,-0.402 3.6,-0.301 3.69,-0.297 3.7,-0.301 3.6,-0.301 3.7,-0.3 3.61,-0.2 3.7,-0.3 3.7,-0.2 3.59,-0.3 3.71,-0.2 3.7,-0.199 3.6,-0.199 3.7,-0.102 3.6,-0.101 3.7,-0.098 3.7,-0.101 3.6,-0.098 h 3.7 3.6 l 3.7,0.098 h 3.7 l 3.6,0.101 3.7,0.199 3.7,0.2 3.6,0.199 3.7,0.203 3.6,0.297 3.7,0.301 3.69,0.402 3.6,0.398 3.7,0.399 3.7,0.5 3.6,0.5 3.7,0.601 3.6,0.602 3.7,0.598 3.7,0.699 3.6,0.703 3.7,0.699 3.6,0.801 3.7,0.797 3.7,0.801 3.6,0.902 3.7,0.898 3.7,0.899 3.6,1 3.7,1 3.6,1 3.7,1.101 3.7,1.102 3.6,1.098 3.7,1.101 3.7,1.199 3.6,1.2 3.7,1.199 3.6,1.203 3.7,1.297 3.7,1.301 3.6,1.3 3.7,1.301 3.7,1.301 3.6,1.398 3.7,1.301 3.6,1.399 3.7,1.402 3.7,1.5 3.6,1.398 3.7,1.5 3.6,1.399 3.7,1.5 3.7,1.5 3.6,1.601 3.7,1.5 3.7,1.602 3.6,1.598 3.7,1.699 3.6,1.601 3.7,1.801 3.7,1.699 3.6,1.801 3.7,1.899 3.7,1.902 3.6,2 3.7,2 3.61,2.098 3.7,2.3 3.7,2.301 3.59,2.301 3.7,2.5 3.6,2.699 3.7,2.699 3.71,2.899 3.6,3.101 3.7,3.2 3.69,3.3 3.61,3.602 3.7,3.699 3.6,3.899 3.7,4.199 3.7,4.402 3.59,4.598 3.71,4.801 3.7,5.199 3.6,5.402 3.7,5.699 3.6,6 3.7,6.2 3.7,6.699 3.6,7 3.7,7.301 3.7,7.7 3.6,8 3.7,8.5 3.6,8.8 3.7,9.3 3.7,9.6 3.6,10 3.7,10.6 3.6,10.9 3.7,11.3 3.7,11.7 3.6,12.3 3.7,12.6 3.7,13.1 3.6,13.4 3.7,13.9 3.6,14.4 3.7,14.7 3.69,15 3.6,15.4 3.7,15.8 3.7,16.1 3.6,16.3 3.7,16.6 3.6,16.8 3.7,17 3.7,17.2 3.6,17.2 3.7,17.2 3.6,17.2 3.7,17.1 3.7,17 3.6,16.8 3.7,16.5 3.7,16.1 3.6,15.7 3.7,15.2 3.6,14.7 3.7,13.9 3.7,13.1 3.6,12.4 3.7,11.6 3.7,10.5 3.6,9.3 3.7,8.2 3.6,7.2 3.7,5.9 3.7,4.3 3.6,2.9 3.7,1.6 3.7,0.2 3.6,-1.5 3.7,-3.2 3.6,-4.8 3.7,-6.2 3.7,-7.7 3.6,-9.6 3.7,-11.2 3.6,-12.7 3.7,-14 3.7,-15.5 3.6,-17.3 3.7,-18.4 3.7,-19.6 3.6,-20.8 3.7,-22 3.6,-23 3.7,-23.9 3.7,-24.5 3.6,-25.3 3.7,-26 3.7,-26.3 3.6,-26.6 3.7,-26.8 3.6,-27 3.7,-26.9 3.7,-26.7 3.6,-26.6 3.7,-26.2 3.6,-25.7 3.7,-25.3 3.7,-24.6 3.6,-24.1 3.7,-23.199 3.7,-22.402 3.6,-21.598 3.7,-20.801 3.6,-19.898 3.7,-18.801 3.7,-17.801 3.6,-17 3.7,-16.101 3.7,-15.098 3.6,-14 3.7,-13.199 3.6,-12.301 3.7,-11.5 3.7,-10.402 3.6,-9.699 3.7,-8.899 3.7,-8.301 3.6,-7.5 3.7,-6.8 3.6,-6.098 3.7,-5.703 3.7,-5.098 3.6,-4.5 3.7,-4 3.6,-3.699 3.7,-3.301 3.7,-2.902 3.6,-2.5 3.7,-2.199 3.7,-2 3.6,-1.801 3.7,-1.5 3.6,-1.297 3.7,-1.203 3.7,-1 3.6,-0.899 3.7,-0.699 3.7,-0.601 3.6,-0.598 3.7,-0.5 3.6,-0.402 3.7,-0.301 3.7,-0.297 3.6,-0.203 3.7,-0.199 3.6,-0.2"
             style="fill:none;stroke:#e03768;stroke-width:15;stroke-linecap:round;stroke-linejoin:round;stroke-miterlimit:10;stroke-dasharray:none;stroke-opacity:1"
             id="path174" />
          <path
             d="m 3502.15,663.82 3.7,0.301 3.7,0.301 3.6,0.398 3.7,0.399 3.6,0.5 3.7,0.601 3.7,0.7 3.6,0.8 3.7,1 3.6,1 3.7,1.301 3.7,1.399 3.6,1.699 3.7,1.801 3.6,2.101 3.7,2.399 3.7,2.699 3.6,2.902 3.7,3.301 3.6,3.797 3.7,4.203 3.7,4.598 3.6,5.101 3.7,5.598 3.7,6.203 3.6,6.699 3.7,7.301 3.6,7.898 3.7,8.7 3.7,9.3 3.6,10 3.7,10.602 3.6,11.398 3.7,12.2 3.7,12.902 3.6,13.5 3.7,14.199 3.6,15.098 3.7,15.703 3.7,16.199 3.6,16.801 3.7,17.398 3.6,18 3.7,18.399 3.7,18.703 3.6,18.898 3.7,19.3 3.7,19.4 3.6,19.4 3.7,19.4 3.6,19.3 3.7,19 3.7,18.7 3.6,18.3 3.7,17.9 3.6,17.2 3.7,16.5 3.7,15.8 3.6,15 3.7,14.1 3.6,12.9 3.7,12 3.7,11 3.6,10 3.7,8.6 3.6,7.5 3.7,6.3 3.7,5.3 3.6,4.1 3.7,2.6 3.7,1.7 3.6,0.6 3.7,-0.4 3.6,-1.6 3.7,-2.6 3.7,-3.5 3.6,-4.2 3.7,-5 3.6,-6 3.7,-6.5 3.7,-7.1 3.6,-7.6 3.7,-8.1 3.6,-8.6 3.7,-8.9 3.7,-9.1 3.6,-9.3 3.7,-9.5 3.6,-9.6 3.7,-9.6 3.7,-9.7 3.6,-9.6 3.7,-9.5 3.7,-9.5 3.6,-9.3 3.7,-9.1 3.6,-9 3.7,-8.7 3.7,-8.5 3.6,-8.3 3.7,-8.1 3.6,-7.8 3.7,-7.5 3.7,-7.3 3.6,-7.1 3.7,-6.8 3.6,-6.5 3.7,-6.3 3.7,-6.1 3.6,-5.8 3.7,-5.6 3.6,-5.4 3.7,-5.2 3.7,-5 3.6,-4.8 3.7,-4.6 3.7,-4.4 3.6,-4.3 3.7,-4.1 3.6,-4 3.7,-3.8 3.7,-3.699 3.6,-3.601 3.7,-3.399 3.6,-3.301 3.7,-3.3 3.7,-3.098 3.6,-3.102 3.7,-2.898 3.6,-2.902 3.7,-2.801 3.7,-2.699 3.6,-2.7 3.7,-2.601 3.6,-2.5 3.7,-2.598 3.7,-2.402 3.6,-2.399 3.7,-2.398 3.7,-2.301 3.6,-2.301 3.7,-2.199 3.6,-2.301 3.7,-2.101 3.7,-2.199 3.6,-2.098 3.7,-2.203 3.6,-2 3.7,-2.098 3.7,-2 3.6,-2 3.7,-2 3.6,-1.902 3.7,-2 3.7,-1.797 3.6,-1.902 3.7,-1.801 3.6,-1.899 3.7,-1.699 3.7,-1.801 3.6,-1.699 3.7,-1.699 3.7,-1.602 3.6,-1.601 3.7,-1.598 3.6,-1.5 3.7,-1.5 3.7,-1.5 3.6,-1.402 3.7,-1.399 3.6,-1.398 3.7,-1.301 3.7,-1.301 3.6,-1.199 3.7,-1.301 3.61,-1.101 3.7,-1.199 3.69,-1.098 3.6,-1.102 3.7,-1 3.6,-1 3.7,-1 3.71,-1 3.6,-0.898 3.69,-0.902 3.7,-0.801 3.61,-0.899 3.7,-0.8 3.6,-0.801 3.7,-0.797 3.7,-0.703 3.59,-0.699 3.71,-0.7 3.6,-0.699 3.7,-0.699 3.7,-0.602 3.6,-0.601 3.7,-0.598 3.6,-0.601 3.69,-0.598 3.7,-0.5 3.6,-0.602 3.7,-0.5 3.7,-0.5 3.6,-0.5 3.7,-0.5 3.6,-0.5 3.7,-0.5 3.7,-0.5 3.6,-0.398 3.7,-0.5 3.6,-0.402 3.7,-0.399 3.7,-0.402 3.6,-0.5 3.7,-0.399 3.6,-0.398 3.7,-0.301 3.7,-0.402 3.6,-0.399 3.7,-0.3 3.6,-0.399 3.7,-0.301 3.7,-0.398 3.6,-0.301 3.7,-0.301 3.7,-0.3 3.6,-0.301 3.7,-0.297 3.6,-0.301 3.7,-0.301 3.7,-0.199 3.6,-0.301 3.7,-0.3 3.6,-0.2 3.7,-0.3 3.7,-0.2 3.6,-0.3 3.7,-0.2 3.6,-0.3 3.7,-0.2 3.7,-0.3 3.6,-0.301 3.7,-0.199 3.6,-0.301 3.7,-0.297 3.71,-0.301 3.59,-0.199 3.7,-0.301 3.7,-0.301 3.6,-0.398 3.7,-0.301 3.6,-0.301 3.71,-0.3 3.7,-0.399 3.59,-0.301 3.7,-0.398 3.61,-0.301 3.7,-0.402 3.7,-0.297 3.6,-0.402 3.69,-0.399 3.6,-0.301 3.71,-0.398 3.7,-0.402 3.6,-0.301 3.7,-0.399 3.6,-0.398 3.7,-0.301 3.7,-0.402 3.6,-0.399 3.7,-0.3 3.7,-0.399 3.6,-0.301 3.7,-0.398 3.6,-0.301 3.7,-0.402 3.7,-0.297 3.6,-0.402 3.7,-0.301 3.6,-0.297 3.7,-0.402 3.7,-0.301 3.6,-0.297 3.7,-0.301 3.6,-0.301 3.7,-0.3 3.7,-0.301 3.6,-0.199 3.7,-0.301 3.6,-0.199 3.7,-0.301 3.7,-0.199 3.6,-0.2 3.7,-0.199 3.7,-0.101 3.6,-0.2 3.7,-0.101 3.6,-0.098 3.69,-0.101 h 3.7 3.6 3.7 3.6 l 3.7,0.101 3.7,0.098 3.6,0.203 3.7,0.199 3.6,0.199 3.7,0.2 3.7,0.3 3.6,0.301 3.7,0.399 3.6,0.3 3.7,0.5 3.7,0.399 3.6,0.5 3.7,0.5 3.7,0.601 3.6,0.5 3.7,0.602 3.6,0.699 3.7,0.598 3.7,0.703 3.6,0.797 3.7,0.703 3.6,0.797 3.7,0.801 3.7,0.8 3.6,0.899 3.7,0.902 3.6,0.899 3.7,0.902 3.7,1 3.6,0.898 3.7,1.102 3.6,1 3.7,1.098 3.7,1.101 3.6,1.199 3.7,1.2 3.7,1.199 3.6,1.301 3.7,1.3 3.6,1.301 3.7,1.399 3.7,1.5 3.6,1.5 3.7,1.5 3.6,1.601 3.7,1.699 3.7,1.7 3.6,1.8 3.7,1.801 3.6,1.899 3.7,2 3.7,2 3.6,2.101 3.7,2.098 3.6,2.203 3.7,2.297 3.7,2.402 3.6,2.399 3.7,2.601 3.7,2.598 3.61,2.703 3.7,2.797 3.59,2.902 3.7,3 3.71,3.098 3.6,3.203 3.7,3.398 3.6,3.5 3.69,3.7 3.7,3.8 3.61,4 3.7,4.2 3.6,4.3 3.7,4.602 3.7,4.898 3.6,5.102 3.7,5.297 3.6,5.601 3.7,6 3.7,6.301 3.6,6.699 3.7,6.899 3.7,7.401 3.6,7.9 3.7,8.2 3.6,8.7 3.7,9.1 3.7,9.8 3.6,10.2 3.7,10.7 3.6,11.3 3.7,11.8 3.7,12.5 3.6,13.1 3.69,13.7 3.6,14.1 3.7,15 3.7,15.6 3.6,16.1 3.7,16.7 3.6,17.3 3.7,18 3.7,18.6 3.6,19 3.7,19.5 3.7,20 3.6,20.5 3.7,20.9 3.6,21.1 3.7,21.5 3.7,21.7 3.6,21.8 3.7,21.8 3.6,21.9 3.7,21.7 3.7,21.5 3.6,21.2 3.7,20.8 3.6,20.4 3.7,19.6 3.7,18.9 3.6,18.1 3.7,17.2 3.6,16.1 3.7,14.7 3.7,13.6 3.6,12.2 3.7,10.9 3.7,8.9 3.6,7.2 3.7,5.7 3.6,3.9 3.7,1.9 3.7,-0.3 3.6,-2.2 3.7,-4.1 3.6,-5.9 3.7,-8.5 3.7,-10.4 3.6,-12.3 3.7,-14.1 3.6,-16.1 3.7,-18.3 3.7,-19.9 3.6,-21.4 3.7,-22.9 3.7,-24.8 3.6,-26 3.7,-27.1 3.6,-28.2 3.7,-29.1 3.7,-30.1 3.6,-30.7 3.7,-31.1 3.6,-31.4 3.7,-31.7 3.7,-31.8 3.6,-31.6 3.7,-31.4 3.6,-31.2 3.7,-30.5 3.7,-30 3.6,-29.3 3.7,-28.6 3.6,-27.7 3.7,-26.6 3.7,-25.701 3.6,-24.699 3.7,-23.7 3.7,-22.3 3.6,-21.301 3.7,-20.098 3.6,-19.101 3.7,-17.899 3.7,-16.5 3.6,-15.601 3.7,-14.5 3.6,-13.598 3.7,-12.203 3.7,-11.399 3.6,-10.5 3.7,-9.601 3.6,-8.797 3.7,-7.801 3.7,-7.199 3.6,-6.5 3.7,-5.902 3.6,-5.2 3.7,-4.699 3.7,-4.101 3.6,-3.801 3.7,-3.297 3.7,-2.902 3.6,-2.5 3.7,-2.301 3.6,-1.899 3.7,-1.699 3.7,-1.5 3.6,-1.301 3.7,-1.101 3.6,-1 3.7,-0.797 3.7,-0.703 3.6,-0.598 3.7,-0.5 3.6,-0.5"
             style="fill:none;stroke:#63c440;stroke-width:15;stroke-linecap:round;stroke-linejoin:round;stroke-miterlimit:10;stroke-dasharray:45, 75;stroke-dashoffset:0;stroke-opacity:1"
             id="path176" />
          <path
             d="m 3497.75,665.719 3.7,0.601 3.7,0.801 3.6,0.801 3.7,1 3.7,1.098 3.7,1.402 3.7,1.5 3.6,1.699 3.7,2 3.7,2.301 3.7,2.598 3.6,3 3.7,3.199 3.7,3.801 3.7,4.3 3.7,4.7 3.6,5.199 3.7,5.801 3.7,6.5 3.7,7.199 3.6,7.902 3.7,8.5 3.7,9.598 3.7,10.301 3.7,11.199 3.6,12.101 3.7,13 3.7,14.2 3.7,15.199 3.6,16 3.7,17 3.7,18.301 3.7,19.3 3.7,20.2 3.6,21.101 3.7,22.199 3.7,23.2 3.7,23.9 3.6,24.7 3.7,25.4 3.7,26.1 3.7,26.6 3.6,27 3.7,27.4 3.7,27.5 3.7,27.6 3.7,27.6 3.6,27.4 3.7,27 3.7,26.5 3.7,25.9 3.6,25.2 3.7,24.3 3.7,23.3 3.7,22 3.7,20.7 3.6,19.6 3.7,18.2 3.7,16.1 3.7,14.7 3.6,13.1 3.7,11.4 3.7,9.5 3.7,7.5 3.7,5.8 3.6,4.2 3.7,2.4 3.7,0.3 3.7,-1.4 3.6,-2.8 3.7,-4.4 3.7,-6.1 3.7,-7.6 3.7,-8.8 3.6,-9.9 3.7,-11.1 3.7,-12.4 3.7,-13.2 3.6,-13.9 3.7,-14.6 3.7,-15.3 3.7,-15.7 3.7,-16.2 3.6,-16.4 3.7,-16.6 3.7,-16.7 3.7,-16.7 3.6,-16.7 3.7,-16.6 3.7,-16.4 3.7,-16.2 3.7,-15.8 3.6,-15.6 3.7,-15.2 3.7,-14.7 3.7,-14.4 3.6,-13.9 3.7,-13.5 3.7,-13 3.7,-12.5 3.7,-12.1 3.6,-11.7 3.7,-11.2 3.7,-10.6 3.7,-10.2 3.6,-9.9 3.7,-9.5 3.7,-9 3.7,-8.6 3.7,-8.2 3.6,-7.9 3.7,-7.6 3.7,-7.2 3.7,-7 3.6,-6.6 3.7,-6.4 3.7,-6.1 3.7,-5.8 3.7,-5.7 3.6,-5.4 3.7,-5.2 3.7,-5 3.7,-4.798 3.6,-4.602 3.7,-4.5 3.7,-4.3 3.7,-4.2 3.7,-4 3.6,-3.898 3.7,-3.801 3.7,-3.601 3.7,-3.5 3.6,-3.5 3.7,-3.301 3.7,-3.199 3.7,-3.2 3.7,-3 3.6,-3 3.7,-2.8 3.7,-2.801 3.7,-2.699 3.6,-2.7 3.7,-2.601 3.7,-2.5 3.7,-2.399 3.7,-2.398 3.6,-2.301 3.71,-2.199 3.7,-2.203 3.69,-2.098 3.6,-2.101 3.71,-2 3.7,-1.899 3.7,-1.902 3.6,-1.899 3.7,-1.8 3.7,-1.801 3.69,-1.699 3.71,-1.598 3.6,-1.703 3.7,-1.598 3.7,-1.5 3.7,-1.5 3.6,-1.5 3.7,-1.402 3.7,-1.399 3.7,-1.398 3.7,-1.301 3.6,-1.301 3.7,-1.3 3.7,-1.2 3.7,-1.199 3.6,-1.199 3.7,-1.203 3.7,-1.098 3.7,-1.199 3.7,-1.102 3.6,-1 3.7,-1.101 3.7,-1 3.7,-1.098 3.6,-1 3.7,-1 3.7,-0.902 3.7,-1 3.7,-0.899 3.6,-1 3.7,-0.898 3.7,-0.902 3.7,-0.899 3.6,-0.801 3.7,-0.898 3.7,-0.902 3.7,-0.801 3.7,-0.797 3.6,-0.801 3.7,-0.801 3.7,-0.8 3.7,-0.801 3.59,-0.797 3.7,-0.703 3.7,-0.797 3.7,-0.703 3.7,-0.699 3.6,-0.801 3.7,-0.699 3.7,-0.7 3.7,-0.699 3.6,-0.699 3.7,-0.602 3.7,-0.699 3.7,-0.699 3.7,-0.602 3.6,-0.699 3.7,-0.601 3.7,-0.7 3.7,-0.601 3.6,-0.598 3.7,-0.699 3.7,-0.602 3.7,-0.601 3.7,-0.598 3.6,-0.601 3.7,-0.598 3.7,-0.602 3.7,-0.601 3.6,-0.598 3.7,-0.5 3.7,-0.601 3.7,-0.598 3.7,-0.602 3.6,-0.5 3.7,-0.601 3.7,-0.5 3.7,-0.598 3.6,-0.5 3.7,-0.601 3.7,-0.5 3.7,-0.598 3.7,-0.5 3.6,-0.5 3.7,-0.602 3.7,-0.5 3.7,-0.5 3.6,-0.5 3.7,-0.5 3.7,-0.5 3.7,-0.5 3.7,-0.5 3.6,-0.5 3.7,-0.398 3.71,-0.5 3.7,-0.402 3.59,-0.399 3.7,-0.402 3.71,-0.399 3.7,-0.398 3.7,-0.402 3.6,-0.301 3.7,-0.297 3.7,-0.301 3.69,-0.301 3.61,-0.3 3.7,-0.2 3.7,-0.199 3.7,-0.199 3.6,-0.203 3.7,-0.098 3.7,-0.101 3.7,-0.098 h 3.7 3.6 3.7 3.7 l 3.7,0.098 3.6,0.101 3.7,0.098 3.7,0.203 3.7,0.199 3.7,0.199 3.6,0.301 3.7,0.301 3.7,0.297 3.7,0.301 3.6,0.402 3.7,0.297 3.7,0.402 3.7,0.5 3.7,0.399 3.6,0.5 3.7,0.5 3.7,0.5 3.7,0.5 3.6,0.5 3.7,0.601 3.7,0.5 3.7,0.598 3.7,0.601 3.6,0.602 3.69,0.598 3.7,0.601 3.7,0.598 3.6,0.703 3.7,0.598 3.7,0.601 3.7,0.699 3.7,0.602 3.6,0.699 3.7,0.699 3.7,0.602 3.7,0.699 3.6,0.699 3.7,0.7 3.7,0.699 3.7,0.703 3.7,0.699 3.6,0.699 3.7,0.7 3.7,0.8 3.7,0.7 3.6,0.699 3.7,0.801 3.7,0.699 3.7,0.801 3.7,0.8 3.6,0.801 3.7,0.801 3.7,0.797 3.7,0.801 3.6,0.8 3.7,0.801 3.7,0.899 3.7,0.8 3.7,0.899 3.6,0.902 3.7,0.899 3.7,0.902 3.7,0.898 3.6,1 3.7,1 3.7,1 3.7,1 3.7,1.102 3.6,1.098 3.7,1.199 3.7,1.203 3.71,1.199 3.59,1.301 3.7,1.297 3.7,1.402 3.7,1.5 3.7,1.598 3.6,1.601 3.71,1.7 3.7,1.699 3.7,1.902 3.59,2 3.71,2.098 3.7,2.203 3.7,2.297 3.7,2.402 3.6,2.598 3.7,2.703 3.7,2.898 3.7,3 3.6,3.2 3.7,3.402 3.7,3.5 3.7,3.797 3.7,3.902 3.6,4.199 3.7,4.399 3.7,4.601 3.7,4.899 3.6,5.101 3.7,5.301 3.7,5.699 3.7,5.899 3.6,6.203 3.7,6.5 3.7,6.797 3.7,7.203 3.7,7.5 3.6,7.797 3.7,8.101 3.7,8.5 3.7,8.9 3.6,9.2 3.7,9.6 3.7,9.9 3.7,10.3 3.7,10.8 3.6,11 3.7,11.4 3.7,11.7 3.7,12.2 3.6,12.4 3.7,12.8 3.7,13.1 3.69,13.4 3.7,13.7 3.6,13.9 3.7,14.2 3.7,14.3 3.7,14.6 3.6,14.7 3.7,14.8 3.7,14.9 3.7,14.9 3.7,14.9 3.6,14.8 3.7,14.7 3.7,14.6 3.7,14.3 3.6,14 3.7,13.7 3.7,13.4 3.7,12.8 3.7,12.2 3.6,11.8 3.7,11.1 3.7,10.4 3.7,9.5 3.6,8.6 3.7,7.9 3.7,7 3.7,5.7 3.7,4.6 3.6,3.6 3.7,2.5 3.7,1.3 3.7,-0.2 3.6,-1.4 3.7,-2.6 3.7,-3.8 3.7,-5.4 3.7,-6.8 3.6,-7.9 3.7,-9.2 3.7,-10.6 3.7,-12 3.6,-13.1 3.7,-14.2 3.7,-15.3 3.7,-16.7 3.7,-17.6 3.6,-18.5 3.7,-19.3 3.7,-20.1 3.7,-21 3.6,-21.5 3.7,-22 3.7,-22.4 3.7,-22.8 3.7,-23 3.6,-23.2 3.7,-23.2 3.7,-23.2 3.7,-23.1 3.6,-22.9 3.7,-22.6 3.7,-22.3 3.7,-21.7 3.7,-21.199 3.6,-20.801 3.7,-20.101 3.7,-19.5 3.7,-18.699 3.6,-18 3.7,-17.301 3.7,-16.5 3.7,-15.598 3.7,-14.801 3.6,-14.101 3.7,-13.399 3.7,-12.398 3.7,-11.602 3.6,-10.898 3.7,-10.203 3.7,-9.5 3.7,-8.699 3.7,-8 3.6,-7.399 3.7,-6.902 3.7,-6.199 3.7,-5.598 3.6,-5.102 3.7,-4.699 3.7,-4.301 3.7,-3.699 3.6,-3.402 3.7,-3.098 3.7,-2.699 3.7,-2.402 3.7,-2.2 3.6,-1.898 3.7,-1.703 3.7,-1.5 3.7,-1.199 3.6,-1.2 3.7,-1 3.7,-0.8 3.7,-0.801 3.7,-0.598 3.6,-0.601 3.7,-0.399 3.7,-0.5 3.7,-0.301 3.6,-0.3 3.7,-0.2 3.7,-0.3"
             style="fill:none;stroke:#4f92d4;stroke-width:15;stroke-linecap:round;stroke-linejoin:round;stroke-miterlimit:10;stroke-dasharray:45, 75;stroke-dashoffset:0;stroke-opacity:1"
             id="path178" />
        </g>
      </g>
      <path
         d="m 3530.25,2073.72 v -57.6 h 69.1 v 57.6 h -69.1"
         style="fill:#100f0d;fill-opacity:1;fill-rule:nonzero;stroke:none"
         id="path180" />
      <path
         d="m 3530.25,2073.72 v -57.6 h 69.1 v 57.6 z"
         style="fill:none;stroke:#100f0d;stroke-width:7.5;stroke-linecap:round;stroke-linejoin:round;stroke-miterlimit:10;stroke-dasharray:none;stroke-opacity:1"
         id="path182" />
      <path
         d="m 3530.25,1958.52 v -57.6 h 69.1 v 57.6 h -69.1"
         style="fill:#e03768;fill-opacity:1;fill-rule:nonzero;stroke:none"
         id="path184" />
      <path
         d="m 3530.25,1958.52 v -57.6 h 69.1 v 57.6 z"
         style="fill:none;stroke:#100f0d;stroke-width:7.5;stroke-linecap:round;stroke-linejoin:round;stroke-miterlimit:10;stroke-dasharray:none;stroke-opacity:1"
         id="path186" />
      <path
         d="m 3530.25,1843.32 v -57.6 h 69.1 v 57.6 h -69.1"
         style="fill:#63c440;fill-opacity:1;fill-rule:nonzero;stroke:none"
         id="path188" />
      <path
         d="m 3530.25,1843.32 v -57.6 h 69.1 v 57.6 z"
         style="fill:none;stroke:#100f0d;stroke-width:7.5;stroke-linecap:round;stroke-linejoin:round;stroke-miterlimit:10;stroke-dasharray:none;stroke-opacity:1"
         id="path190" />
      <path
         d="m 3530.25,1728.12 v -57.6 h 69.1 v 57.6 h -69.1"
         style="fill:#4f92d4;fill-opacity:1;fill-rule:nonzero;stroke:none"
         id="path192" />
      <path
         d="m 3530.25,1728.12 v -57.6 h 69.1 v 57.6 z"
         style="fill:none;stroke:#100f0d;stroke-width:7.5;stroke-linecap:round;stroke-linejoin:round;stroke-miterlimit:10;stroke-dasharray:none;stroke-opacity:1"
         id="path194" />
      <g
         id="g196"
         transform="scale(10)">
        <text
           xml:space="preserve"
           transform="matrix(1,0,0,-1,368.585,200.896)"
           style="font-variant:normal;font-weight:normal;font-size:10px;font-family:Helvetica;-inkscape-font-specification:Helvetica;writing-mode:lr-tb;fill:#100f0d;fill-opacity:1;fill-rule:nonzero;stroke:none"
           id="text206"><tspan
             x="0 6.1100001 12.78 21.110001 23.889999 30.559999 36.119999 41.68 46.68 56.830002 62.389999 65.180061"
             y="0"
             sodipodi:role="line"
             id="tspan198">TPM Spec@0.1</tspan><tspan
             x="0 6.1100001 12.78 21.110001 23.889999 30.559999 36.119999 41.68 46.68 56.830002 62.389999 65.180061"
             y="11.5156"
             sodipodi:role="line"
             id="tspan200">TPM Spec@1.0</tspan><tspan
             x="0 7.2199998 13.89 20.559999 28.889999 31.67 38.34 43.900002 49.459999 54.459999 64.610001 70.169998 72.960938"
             y="23.0312"
             sodipodi:role="line"
             id="tspan202">RPKM Spec@0.3</tspan><tspan
             x="0 7.2199998 13.89 20.559999 28.889999 31.67 38.34 43.900002 49.459999 54.459999 64.610001 70.169998 72.960938"
             y="34.546799"
             sodipodi:role="line"
             id="tspan204">RPKM Spec@1.0</tspan></text>
      </g>
    </g>
  </g>
</svg>
