<?xml version="1.0" encoding="UTF-8" standalone="no"?>
<!-- Created with Inkscape (http://www.inkscape.org/) -->

<svg
   version="1.1"
   id="svg2"
   xml:space="preserve"
   width="712.95209"
   height="333.05746"
   viewBox="0 0 712.95209 333.05746"
   sodipodi:docname="771da6eee8aeb145a669e486c5657d47.eps"
   xmlns:inkscape="http://www.inkscape.org/namespaces/inkscape"
   xmlns:sodipodi="http://sodipodi.sourceforge.net/DTD/sodipodi-0.dtd"
   xmlns="http://www.w3.org/2000/svg"
   xmlns:svg="http://www.w3.org/2000/svg"><defs
     id="defs6" /><sodipodi:namedview
     id="namedview4"
     pagecolor="#ffffff"
     bordercolor="#666666"
     borderopacity="1.0"
     inkscape:pageshadow="2"
     inkscape:pageopacity="0.0"
     inkscape:pagecheckerboard="0" /><g
     id="g8"
     inkscape:groupmode="layer"
     inkscape:label="ink_ext_XXXXXX"
     transform="matrix(1.3333333,0,0,-1.3333333,-3.4832707,346.80792)"><g
       id="g10"
       transform="scale(0.1)"><path
         d="m 859.047,643.441 v 690.499 h 80.5 V 643.441 h -80.5"
         style="fill:#f7980f;fill-opacity:1;fill-rule:nonzero;stroke:none"
         id="path12" /><path
         d="m 859.047,643.441 v 690.499 h 80.5 V 643.441 Z"
         style="fill:none;stroke:#100f0d;stroke-width:7.5;stroke-linecap:round;stroke-linejoin:round;stroke-miterlimit:10;stroke-dasharray:none;stroke-opacity:1"
         id="path14" /><path
         d="m 939.547,643.441 v 0 h 80.503 v 0 h -80.503"
         style="fill:#3b4ba7;fill-opacity:1;fill-rule:nonzero;stroke:none"
         id="path16" /><path
         d="m 939.547,643.441 v 0 h 80.503 v 0 z"
         style="fill:none;stroke:#100f0d;stroke-width:7.5;stroke-linecap:round;stroke-linejoin:round;stroke-miterlimit:10;stroke-dasharray:none;stroke-opacity:1"
         id="path18" /><path
         d="m 1100.45,643.441 v 634.499 h 80.5 V 643.441 h -80.5"
         style="fill:#f7980f;fill-opacity:1;fill-rule:nonzero;stroke:none"
         id="path20" /><path
         d="m 1100.45,643.441 v 634.499 h 80.5 V 643.441 Z"
         style="fill:none;stroke:#100f0d;stroke-width:7.5;stroke-linecap:round;stroke-linejoin:round;stroke-miterlimit:10;stroke-dasharray:none;stroke-opacity:1"
         id="path22" /><path
         d="m 1180.95,643.441 v 28 h 80.5 v -28 h -80.5"
         style="fill:#3b4ba7;fill-opacity:1;fill-rule:nonzero;stroke:none"
         id="path24" /><path
         d="m 1180.95,643.441 v 28 h 80.5 v -28 z"
         style="fill:none;stroke:#100f0d;stroke-width:7.5;stroke-linecap:round;stroke-linejoin:round;stroke-miterlimit:10;stroke-dasharray:none;stroke-opacity:1"
         id="path26" /><path
         d="m 1341.95,643.441 v 606.499 h 80.5 V 643.441 h -80.5"
         style="fill:#f7980f;fill-opacity:1;fill-rule:nonzero;stroke:none"
         id="path28" /><path
         d="m 1341.95,643.441 v 606.499 h 80.5 V 643.441 Z"
         style="fill:none;stroke:#100f0d;stroke-width:7.5;stroke-linecap:round;stroke-linejoin:round;stroke-miterlimit:10;stroke-dasharray:none;stroke-opacity:1"
         id="path30" /><path
         d="m 1422.35,643.441 v 31.098 h 80.5 v -31.098 h -80.5"
         style="fill:#3b4ba7;fill-opacity:1;fill-rule:nonzero;stroke:none"
         id="path32" /><path
         d="m 1422.35,643.441 v 31.098 h 80.5 v -31.098 z"
         style="fill:none;stroke:#100f0d;stroke-width:7.5;stroke-linecap:round;stroke-linejoin:round;stroke-miterlimit:10;stroke-dasharray:none;stroke-opacity:1"
         id="path34" /><path
         d="m 1583.35,643.441 v 550.499 h 80.5 V 643.441 h -80.5"
         style="fill:#f7980f;fill-opacity:1;fill-rule:nonzero;stroke:none"
         id="path36" /><path
         d="m 1583.35,643.441 v 550.499 h 80.5 V 643.441 Z"
         style="fill:none;stroke:#100f0d;stroke-width:7.5;stroke-linecap:round;stroke-linejoin:round;stroke-miterlimit:10;stroke-dasharray:none;stroke-opacity:1"
         id="path38" /><path
         d="m 1663.85,643.441 v 46.7 h 80.5 v -46.7 h -80.5"
         style="fill:#3b4ba7;fill-opacity:1;fill-rule:nonzero;stroke:none"
         id="path40" /><path
         d="m 1663.85,643.441 v 46.7 h 80.5 v -46.7 z"
         style="fill:none;stroke:#100f0d;stroke-width:7.5;stroke-linecap:round;stroke-linejoin:round;stroke-miterlimit:10;stroke-dasharray:none;stroke-opacity:1"
         id="path42" /><path
         d="m 1824.75,643.441 v 615.899 h 80.5 V 643.441 h -80.5"
         style="fill:#f7980f;fill-opacity:1;fill-rule:nonzero;stroke:none"
         id="path44" /><path
         d="m 1824.75,643.441 v 615.899 h 80.5 V 643.441 Z"
         style="fill:none;stroke:#100f0d;stroke-width:7.5;stroke-linecap:round;stroke-linejoin:round;stroke-miterlimit:10;stroke-dasharray:none;stroke-opacity:1"
         id="path46" /><path
         d="m 1905.25,643.441 v 90.2 h 80.5 v -90.2 h -80.5"
         style="fill:#3b4ba7;fill-opacity:1;fill-rule:nonzero;stroke:none"
         id="path48" /><path
         d="m 1905.25,643.441 v 90.2 h 80.5 v -90.2 z"
         style="fill:none;stroke:#100f0d;stroke-width:7.5;stroke-linecap:round;stroke-linejoin:round;stroke-miterlimit:10;stroke-dasharray:none;stroke-opacity:1"
         id="path50" /><path
         d="m 2066.25,643.441 v 957.999 h 80.5 V 643.441 h -80.5"
         style="fill:#f7980f;fill-opacity:1;fill-rule:nonzero;stroke:none"
         id="path52" /><path
         d="m 2066.25,643.441 v 957.999 h 80.5 V 643.441 Z"
         style="fill:none;stroke:#100f0d;stroke-width:7.5;stroke-linecap:round;stroke-linejoin:round;stroke-miterlimit:10;stroke-dasharray:none;stroke-opacity:1"
         id="path54" /><path
         d="m 2146.65,643.441 v 112 h 80.5 v -112 h -80.5"
         style="fill:#3b4ba7;fill-opacity:1;fill-rule:nonzero;stroke:none"
         id="path56" /><path
         d="m 2146.65,643.441 v 112 h 80.5 v -112 z"
         style="fill:none;stroke:#100f0d;stroke-width:7.5;stroke-linecap:round;stroke-linejoin:round;stroke-miterlimit:10;stroke-dasharray:none;stroke-opacity:1"
         id="path58" /><path
         d="m 2307.65,643.441 v 761.999 h 80.5 V 643.441 h -80.5"
         style="fill:#f7980f;fill-opacity:1;fill-rule:nonzero;stroke:none"
         id="path60" /><path
         d="m 2307.65,643.441 v 761.999 h 80.5 V 643.441 Z"
         style="fill:none;stroke:#100f0d;stroke-width:7.5;stroke-linecap:round;stroke-linejoin:round;stroke-miterlimit:10;stroke-dasharray:none;stroke-opacity:1"
         id="path62" /><path
         d="M 2388.15,643.441 V 907.84 h 80.5 V 643.441 h -80.5"
         style="fill:#3b4ba7;fill-opacity:1;fill-rule:nonzero;stroke:none"
         id="path64" /><path
         d="M 2388.15,643.441 V 907.84 h 80.5 V 643.441 Z"
         style="fill:none;stroke:#100f0d;stroke-width:7.5;stroke-linecap:round;stroke-linejoin:round;stroke-miterlimit:10;stroke-dasharray:none;stroke-opacity:1"
         id="path66" /><path
         d="M 2549.05,643.441 V 1781.84 h 80.5 V 643.441 h -80.5"
         style="fill:#f7980f;fill-opacity:1;fill-rule:nonzero;stroke:none"
         id="path68" /><path
         d="M 2549.05,643.441 V 1781.84 h 80.5 V 643.441 Z"
         style="fill:none;stroke:#100f0d;stroke-width:7.5;stroke-linecap:round;stroke-linejoin:round;stroke-miterlimit:10;stroke-dasharray:none;stroke-opacity:1"
         id="path70" /><path
         d="M 2629.55,643.441 V 923.34 h 80.5 V 643.441 h -80.5"
         style="fill:#3b4ba7;fill-opacity:1;fill-rule:nonzero;stroke:none"
         id="path72" /><path
         d="M 2629.55,643.441 V 923.34 h 80.5 V 643.441 Z"
         style="fill:none;stroke:#100f0d;stroke-width:7.5;stroke-linecap:round;stroke-linejoin:round;stroke-miterlimit:10;stroke-dasharray:none;stroke-opacity:1"
         id="path74" /><path
         d="m 2790.45,643.441 v 808.699 h 80.5 V 643.441 h -80.5"
         style="fill:#f7980f;fill-opacity:1;fill-rule:nonzero;stroke:none"
         id="path76" /><path
         d="m 2790.45,643.441 v 808.699 h 80.5 V 643.441 Z"
         style="fill:none;stroke:#100f0d;stroke-width:7.5;stroke-linecap:round;stroke-linejoin:round;stroke-miterlimit:10;stroke-dasharray:none;stroke-opacity:1"
         id="path78" /><path
         d="m 2870.95,643.441 v 311 h 80.5 v -311 h -80.5"
         style="fill:#3b4ba7;fill-opacity:1;fill-rule:nonzero;stroke:none"
         id="path80" /><path
         d="m 2870.95,643.441 v 311 h 80.5 v -311 z"
         style="fill:none;stroke:#100f0d;stroke-width:7.5;stroke-linecap:round;stroke-linejoin:round;stroke-miterlimit:10;stroke-dasharray:none;stroke-opacity:1"
         id="path82" /><path
         d="m 3031.95,643.441 v 945.599 h 80.5 V 643.441 h -80.5"
         style="fill:#f7980f;fill-opacity:1;fill-rule:nonzero;stroke:none"
         id="path84" /><path
         d="m 3031.95,643.441 v 945.599 h 80.5 V 643.441 Z"
         style="fill:none;stroke:#100f0d;stroke-width:7.5;stroke-linecap:round;stroke-linejoin:round;stroke-miterlimit:10;stroke-dasharray:none;stroke-opacity:1"
         id="path86" /><path
         d="m 3112.35,643.441 v 531.899 h 80.5 V 643.441 h -80.5"
         style="fill:#3b4ba7;fill-opacity:1;fill-rule:nonzero;stroke:none"
         id="path88" /><path
         d="m 3112.35,643.441 v 531.899 h 80.5 V 643.441 Z"
         style="fill:none;stroke:#100f0d;stroke-width:7.5;stroke-linecap:round;stroke-linejoin:round;stroke-miterlimit:10;stroke-dasharray:none;stroke-opacity:1"
         id="path90" /><path
         d="M 3273.35,643.441 V 1651.23 h 80.5 V 643.441 h -80.5"
         style="fill:#f7980f;fill-opacity:1;fill-rule:nonzero;stroke:none"
         id="path92" /><path
         d="M 3273.35,643.441 V 1651.23 h 80.5 V 643.441 Z"
         style="fill:none;stroke:#100f0d;stroke-width:7.5;stroke-linecap:round;stroke-linejoin:round;stroke-miterlimit:10;stroke-dasharray:none;stroke-opacity:1"
         id="path94" /><path
         d="m 3353.85,643.441 v 594.099 h 80.5 V 643.441 h -80.5"
         style="fill:#3b4ba7;fill-opacity:1;fill-rule:nonzero;stroke:none"
         id="path96" /><path
         d="m 3353.85,643.441 v 594.099 h 80.5 V 643.441 Z"
         style="fill:none;stroke:#100f0d;stroke-width:7.5;stroke-linecap:round;stroke-linejoin:round;stroke-miterlimit:10;stroke-dasharray:none;stroke-opacity:1"
         id="path98" /><path
         d="m 3514.75,643.441 v 917.599 h 80.5 V 643.441 h -80.5"
         style="fill:#f7980f;fill-opacity:1;fill-rule:nonzero;stroke:none"
         id="path100" /><path
         d="m 3514.75,643.441 v 917.599 h 80.5 V 643.441 Z"
         style="fill:none;stroke:#100f0d;stroke-width:7.5;stroke-linecap:round;stroke-linejoin:round;stroke-miterlimit:10;stroke-dasharray:none;stroke-opacity:1"
         id="path102" /><path
         d="m 3595.25,643.441 v 584.799 h 80.5 V 643.441 h -80.5"
         style="fill:#3b4ba7;fill-opacity:1;fill-rule:nonzero;stroke:none"
         id="path104" /><path
         d="m 3595.25,643.441 v 584.799 h 80.5 V 643.441 Z"
         style="fill:none;stroke:#100f0d;stroke-width:7.5;stroke-linecap:round;stroke-linejoin:round;stroke-miterlimit:10;stroke-dasharray:none;stroke-opacity:1"
         id="path106" /><path
         d="m 3756.25,643.441 v 973.599 h 80.5 V 643.441 h -80.5"
         style="fill:#f7980f;fill-opacity:1;fill-rule:nonzero;stroke:none"
         id="path108" /><path
         d="m 3756.25,643.441 v 973.599 h 80.5 V 643.441 Z"
         style="fill:none;stroke:#100f0d;stroke-width:7.5;stroke-linecap:round;stroke-linejoin:round;stroke-miterlimit:10;stroke-dasharray:none;stroke-opacity:1"
         id="path110" /><path
         d="m 3836.65,643.441 v 612.699 h 80.5 V 643.441 h -80.5"
         style="fill:#3b4ba7;fill-opacity:1;fill-rule:nonzero;stroke:none"
         id="path112" /><path
         d="m 3836.65,643.441 v 612.699 h 80.5 V 643.441 Z"
         style="fill:none;stroke:#100f0d;stroke-width:7.5;stroke-linecap:round;stroke-linejoin:round;stroke-miterlimit:10;stroke-dasharray:none;stroke-opacity:1"
         id="path114" /><path
         d="M 3997.65,643.441 V 1977.84 h 80.5 V 643.441 h -80.5"
         style="fill:#f7980f;fill-opacity:1;fill-rule:nonzero;stroke:none"
         id="path116" /><path
         d="M 3997.65,643.441 V 1977.84 h 80.5 V 643.441 Z"
         style="fill:none;stroke:#100f0d;stroke-width:7.5;stroke-linecap:round;stroke-linejoin:round;stroke-miterlimit:10;stroke-dasharray:none;stroke-opacity:1"
         id="path118" /><path
         d="m 4078.15,643.441 v 961.099 h 80.5 V 643.441 h -80.5"
         style="fill:#3b4ba7;fill-opacity:1;fill-rule:nonzero;stroke:none"
         id="path120" /><path
         d="m 4078.15,643.441 v 961.099 h 80.5 V 643.441 Z"
         style="fill:none;stroke:#100f0d;stroke-width:7.5;stroke-linecap:round;stroke-linejoin:round;stroke-miterlimit:10;stroke-dasharray:none;stroke-opacity:1"
         id="path122" /><path
         d="M 4239.05,643.441 V 2092.84 h 80.5 V 643.441 h -80.5"
         style="fill:#f7980f;fill-opacity:1;fill-rule:nonzero;stroke:none"
         id="path124" /><path
         d="M 4239.05,643.441 V 2092.84 h 80.5 V 643.441 Z"
         style="fill:none;stroke:#100f0d;stroke-width:7.5;stroke-linecap:round;stroke-linejoin:round;stroke-miterlimit:10;stroke-dasharray:none;stroke-opacity:1"
         id="path126" /><path
         d="M 4319.55,643.441 V 1750.74 h 80.5 V 643.441 h -80.5"
         style="fill:#3b4ba7;fill-opacity:1;fill-rule:nonzero;stroke:none"
         id="path128" /><path
         d="M 4319.55,643.441 V 1750.74 h 80.5 V 643.441 Z"
         style="fill:none;stroke:#100f0d;stroke-width:7.5;stroke-linecap:round;stroke-linejoin:round;stroke-miterlimit:10;stroke-dasharray:none;stroke-opacity:1"
         id="path130" /><path
         d="M 4480.45,643.441 V 1850.24 h 80.5 V 643.441 h -80.5"
         style="fill:#f7980f;fill-opacity:1;fill-rule:nonzero;stroke:none"
         id="path132" /><path
         d="M 4480.45,643.441 V 1850.24 h 80.5 V 643.441 Z"
         style="fill:none;stroke:#100f0d;stroke-width:7.5;stroke-linecap:round;stroke-linejoin:round;stroke-miterlimit:10;stroke-dasharray:none;stroke-opacity:1"
         id="path134" /><path
         d="m 4560.95,643.441 v 905.099 h 80.5 V 643.441 h -80.5"
         style="fill:#3b4ba7;fill-opacity:1;fill-rule:nonzero;stroke:none"
         id="path136" /><path
         d="m 4560.95,643.441 v 905.099 h 80.5 V 643.441 Z"
         style="fill:none;stroke:#100f0d;stroke-width:7.5;stroke-linecap:round;stroke-linejoin:round;stroke-miterlimit:10;stroke-dasharray:none;stroke-opacity:1"
         id="path138" /><path
         d="M 4721.95,643.441 V 1644.94 h 80.5 V 643.441 h -80.5"
         style="fill:#f7980f;fill-opacity:1;fill-rule:nonzero;stroke:none"
         id="path140" /><path
         d="M 4721.95,643.441 V 1644.94 h 80.5 V 643.441 Z"
         style="fill:none;stroke:#100f0d;stroke-width:7.5;stroke-linecap:round;stroke-linejoin:round;stroke-miterlimit:10;stroke-dasharray:none;stroke-opacity:1"
         id="path142" /><path
         d="m 4802.35,643.441 v 743.399 h 80.5 V 643.441 h -80.5"
         style="fill:#3b4ba7;fill-opacity:1;fill-rule:nonzero;stroke:none"
         id="path144" /><path
         d="m 4802.35,643.441 v 743.399 h 80.5 V 643.441 Z"
         style="fill:none;stroke:#100f0d;stroke-width:7.5;stroke-linecap:round;stroke-linejoin:round;stroke-miterlimit:10;stroke-dasharray:none;stroke-opacity:1"
         id="path146" /><path
         d="m 4963.35,643.441 v 845.999 h 80.5 V 643.441 h -80.5"
         style="fill:#f7980f;fill-opacity:1;fill-rule:nonzero;stroke:none"
         id="path148" /><path
         d="m 4963.35,643.441 v 845.999 h 80.5 V 643.441 Z"
         style="fill:none;stroke:#100f0d;stroke-width:7.5;stroke-linecap:round;stroke-linejoin:round;stroke-miterlimit:10;stroke-dasharray:none;stroke-opacity:1"
         id="path150" /><path
         d="m 5043.85,643.441 v 622.099 h 80.5 V 643.441 h -80.5"
         style="fill:#3b4ba7;fill-opacity:1;fill-rule:nonzero;stroke:none"
         id="path152" /><path
         d="m 5043.85,643.441 v 622.099 h 80.5 V 643.441 Z"
         style="fill:none;stroke:#100f0d;stroke-width:7.5;stroke-linecap:round;stroke-linejoin:round;stroke-miterlimit:10;stroke-dasharray:none;stroke-opacity:1"
         id="path154" /><path
         d="m 5204.75,643.441 v 628.299 h 80.5 V 643.441 h -80.5"
         style="fill:#f7980f;fill-opacity:1;fill-rule:nonzero;stroke:none"
         id="path156" /><path
         d="m 5204.75,643.441 v 628.299 h 80.5 V 643.441 Z"
         style="fill:none;stroke:#100f0d;stroke-width:7.5;stroke-linecap:round;stroke-linejoin:round;stroke-miterlimit:10;stroke-dasharray:none;stroke-opacity:1"
         id="path158" /><path
         d="M 5285.25,643.441 V 979.34 h 80.5 V 643.441 h -80.5"
         style="fill:#3b4ba7;fill-opacity:1;fill-rule:nonzero;stroke:none"
         id="path160" /><path
         d="M 5285.25,643.441 V 979.34 h 80.5 V 643.441 Z"
         style="fill:none;stroke:#100f0d;stroke-width:7.5;stroke-linecap:round;stroke-linejoin:round;stroke-miterlimit:10;stroke-dasharray:none;stroke-opacity:1"
         id="path162" /><g
         id="g164"
         transform="scale(10)"><text
           transform="matrix(1,0,0,-1,83.2852,38.4199)"
           style="font-variant:normal;font-weight:normal;font-size:12px;font-family:Helvetica;-inkscape-font-specification:Helvetica;writing-mode:lr-tb;fill:#100f0d;fill-opacity:1;fill-rule:nonzero;stroke:none"
           id="text168"><tspan
             x="0 8.6660204 47.944901 56.608902 63.280899 96.234703 104.8987 111.5707 144.52377 153.18777 159.85979 192.80458 201.46858 208.14058 241.09366 249.75766 256.42966 289.37494 298.03894 304.71094 337.66403 346.32803 353.00003 385.94482 394.60883 401.28082 434.23462 442.89862 449.57062"
             y="0"
             sodipodi:role="line"
             id="tspan166">C4C87C12C10C85C74C33C28C25C81</tspan></text><text
           transform="matrix(1,0,0,-1,13.0567,244.3579)"
           style="font-variant:normal;font-weight:normal;font-size:22px;font-family:Helvetica;-inkscape-font-specification:Helvetica;writing-mode:lr-tb;fill:#100f0d;fill-opacity:1;fill-rule:nonzero;stroke:none"
           id="text172"><tspan
             x="0"
             y="0"
             id="tspan170">B</tspan></text><text
           transform="matrix(0,1,1,0,17.173,64.3441)"
           style="font-variant:normal;font-weight:normal;font-size:20px;font-family:Helvetica;-inkscape-font-specification:Helvetica;writing-mode:lr-tb;fill:#100f0d;fill-opacity:1;fill-rule:nonzero;stroke:none"
           id="text176"><tspan
             x="0 14.443399 25.566397 42.226395 53.3494 64.472404 71.132401 76.689049 87.81205 93.36869 98.925331 114.48193 125.60494 136.72795 147.85092"
             y="0"
             sodipodi:role="line"
             id="tspan174">Number of Genes</tspan></text></g><path
         d="m 678.746,2198.64 h -72 m 72,-311.1 h -72 m 72,-311 h -72 m 72,-311 h -72 m 72,-311.099 h -72 m 72,-311 h -72 m 72,0 V 2198.64"
         style="fill:none;stroke:#100f0d;stroke-width:7.5;stroke-linecap:round;stroke-linejoin:round;stroke-miterlimit:10;stroke-dasharray:none;stroke-opacity:1"
         id="path178" /><g
         id="g180"
         transform="scale(10)"><text
           transform="matrix(1,0,0,-1,46.8008,60.0289)"
           style="font-variant:normal;font-weight:normal;font-size:14px;font-family:Helvetica;-inkscape-font-specification:Helvetica;writing-mode:lr-tb;fill:#100f0d;fill-opacity:1;fill-rule:nonzero;stroke:none"
           id="text194"><tspan
             x="0"
             y="0"
             id="tspan182">0</tspan><tspan
             x="-13.3438 -5.5598001 2.2242"
             y="-31.110201"
             sodipodi:role="line"
             id="tspan184">100</tspan><tspan
             x="-13.3438 -5.5598001 2.2242"
             y="-62.210999"
             sodipodi:role="line"
             id="tspan186">200</tspan><tspan
             x="-13.3438 -5.5598001 2.2242"
             y="-93.313301"
             sodipodi:role="line"
             id="tspan188">300</tspan><tspan
             x="-13.3438 -5.5598001 2.2242"
             y="-124.4223"
             sodipodi:role="line"
             id="tspan190">400</tspan><tspan
             x="-13.3438 -5.5598001 2.2242"
             y="-155.5239"
             sodipodi:role="line"
             id="tspan192">500</tspan></text></g><path
         d="m 859.047,1887.54 v -432 H 1985.75 v 432 z"
         style="fill:none;stroke:#100f0d;stroke-width:7.5;stroke-linecap:round;stroke-linejoin:round;stroke-miterlimit:10;stroke-dasharray:none;stroke-opacity:1"
         id="path196" /><path
         d="m 967.047,1779.54 v -72 h 86.403 v 72 h -86.403"
         style="fill:#f7980f;fill-opacity:1;fill-rule:nonzero;stroke:none"
         id="path198" /><path
         d="m 967.047,1779.54 v -72 h 86.403 v 72 z"
         style="fill:none;stroke:#100f0d;stroke-width:7.5;stroke-linecap:round;stroke-linejoin:round;stroke-miterlimit:10;stroke-dasharray:none;stroke-opacity:1"
         id="path200" /><path
         d="m 967.047,1635.54 v -72 h 86.403 v 72 h -86.403"
         style="fill:#3b4ba7;fill-opacity:1;fill-rule:nonzero;stroke:none"
         id="path202" /><path
         d="m 967.047,1635.54 v -72 h 86.403 v 72 z"
         style="fill:none;stroke:#100f0d;stroke-width:7.5;stroke-linecap:round;stroke-linejoin:round;stroke-miterlimit:10;stroke-dasharray:none;stroke-opacity:1"
         id="path204" /><g
         id="g206"
         transform="scale(10)"><text
           transform="matrix(1,0,0,-1,116.145,170.053)"
           style="font-variant:normal;font-weight:normal;font-size:14px;font-family:Helvetica;-inkscape-font-specification:Helvetica;writing-mode:lr-tb;fill:#100f0d;fill-opacity:1;fill-rule:nonzero;stroke:none"
           id="text212"><tspan
             x="0 7.7839999 15.568 24.906 32.689999 37.352001 47.459999 56.798 67.690002"
             y="0"
             sodipodi:role="line"
             id="tspan208">LoVarUEGs</tspan><tspan
             x="0 7.7839999 15.568 23.351999 31.136 41.243999"
             y="14.4066"
             sodipodi:role="line"
             id="tspan210">2013HK</tspan></text><text
           transform="matrix(1,0,0,-1,240.926,10.5814)"
           style="font-variant:normal;font-weight:normal;font-size:22px;font-family:Helvetica;-inkscape-font-specification:Helvetica;writing-mode:lr-tb;fill:#100f0d;fill-opacity:1;fill-rule:nonzero;stroke:none"
           id="text216"><tspan
             x="0 17.115999 29.348 41.580002 53.812 59.928001 70.928001 75.811996 88.043999 99.043999 105.16 117.392"
             y="0"
             sodipodi:role="line"
             id="tspan214">Gene cluster</tspan></text><text
           transform="matrix(1,0,0,-1,106.024,53.4205)"
           style="font-variant:normal;font-weight:normal;font-size:12px;font-family:Helvetica;-inkscape-font-specification:Helvetica;writing-mode:lr-tb;fill:#100f0d;fill-opacity:1;fill-rule:nonzero;stroke:none"
           id="text222"><tspan
             x="0 8.6639996 15.336"
             y="0"
             sodipodi:role="line"
             id="tspan218">C77</tspan><tspan
             x="49.465199 58.1292 64.801201 98.465157 107.12916 113.80116 148.46519 157.13123 194.46527 203.12927 209.80127 243.46523 252.12923 258.80124 290.46527 299.12927 305.80127 339.46524 348.12921 354.80124 387.46524 396.12921 402.80124"
             y="0.025"
             sodipodi:role="line"
             id="tspan220">C62C43C2C34C91C75C67C13</tspan></text></g></g></g></svg>
